<mxfile host="Electron" modified="2023-10-25T15:29:30.507Z" agent="Mozilla/5.0 (Windows NT 10.0; Win64; x64) AppleWebKit/537.36 (KHTML, like Gecko) draw.io/21.5.0 Chrome/112.0.5615.204 Electron/24.5.1 Safari/537.36" etag="mIgpOO73hJBWK0dUJ2Ef" version="21.5.0" type="device">
  <diagram name="第 1 页" id="1OdqA9OxflFbBo6gB4fp">
    <mxGraphModel dx="2831" dy="907" grid="1" gridSize="10" guides="1" tooltips="1" connect="1" arrows="1" fold="1" page="1" pageScale="1" pageWidth="827" pageHeight="1169" math="0" shadow="0">
      <root>
        <mxCell id="0" />
        <mxCell id="1" parent="0" />
        <mxCell id="R0ztrQL8_Un1_5b5-fqd-24" style="edgeStyle=orthogonalEdgeStyle;rounded=0;orthogonalLoop=1;jettySize=auto;html=1;entryX=0;entryY=0.5;entryDx=0;entryDy=0;shape=link;fillColor=#d5e8d4;strokeColor=#82b366;strokeWidth=2;" edge="1" parent="1" target="R0ztrQL8_Un1_5b5-fqd-3">
          <mxGeometry relative="1" as="geometry">
            <mxPoint x="-280" y="660" as="sourcePoint" />
            <Array as="points">
              <mxPoint x="-280" y="842" />
            </Array>
          </mxGeometry>
        </mxCell>
        <mxCell id="R0ztrQL8_Un1_5b5-fqd-2" value="Child Thread Listener" style="image;aspect=fixed;html=1;points=[];align=center;fontSize=15;image=img/lib/azure2/analytics/Analysis_Services.svg;fontStyle=0;fontFamily=Comic Sans MS;" vertex="1" parent="1">
          <mxGeometry x="-310" y="600" width="63" height="48" as="geometry" />
        </mxCell>
        <mxCell id="R0ztrQL8_Un1_5b5-fqd-25" style="edgeStyle=orthogonalEdgeStyle;rounded=1;orthogonalLoop=1;jettySize=auto;html=1;fillColor=#fff2cc;strokeColor=#d6b656;shape=link;strokeWidth=2;dashed=1;" edge="1" parent="1" source="R0ztrQL8_Un1_5b5-fqd-3" target="R0ztrQL8_Un1_5b5-fqd-7">
          <mxGeometry relative="1" as="geometry" />
        </mxCell>
        <mxCell id="R0ztrQL8_Un1_5b5-fqd-3" value="" style="shape=image;verticalLabelPosition=bottom;labelBackgroundColor=default;verticalAlign=top;aspect=fixed;imageAspect=0;image=data:image/png,iVBORw0KGgoAAAANSUhEUgAAAm8AAAIXCAYAAADKR7kkAAAgAElEQVR4nOy9d5Rdx33n+a3XCaG7gQYaDTRiI4cmSIJiAAjmIGpEaccK9q4sy5qxbO/aWnvsOWN7zuzsHB/N7szorHdXc2bGZ+yZ9XpNWbSVRjQVaVEUBQYIzERuAI1GNwIRuhvogI6va/946d66v6pbdcMLjd+Hh+gbKvxu3Qrf+6u694nu7m6JPM3NzRgbGwPDMAzDMAxTnWQqbQDDMAzDMAxjD4s3hmEYhmGYGoLFG8MwDMMwTA3B4o1hGIZhGKaGYPHGMAzDMAxTQ7B4YxiGYRiGqSHqXSNI2Yj2Xfuwff1KtLaOouf576N3UqRhG8MwDMMwDKPgJN5k/QY88IXfwSNbWlEnBKQ8ixs/+j56J9Myj2EYhmEYhvHiJN4W3f0LeGRLK6bOPI9vfv3H6B+8iTnBXjeGYRiGYZhy4STeWtuWIwOJvoPfRd+QBFi4MQzDMAzDlBWnFxYmJm9CiAwamxrSsodhGIZhGIYx4CTexkbHMCclFrUsTcsehmEYhmEYxoCTeMuOjGASwOKWJSmZwzAMwzAMw5hw+87b7AxmAQjwWjeGYRiGYZhKYCXepMygoXk1uu/tRrO8jlPH+tK2i2EYhmEYhiEwvm266qNfwm8+1gkAkHIKw6cP4cd//hwOnZriN00ZhmEYhmEqgFG8jfe/hbd/vgSAQP2ilVi77X7se2IIF84/jwH+MC/DMAzDMEzZEd3d3bKw09zcjLGxMW3ghjt+C//0V+7E4A//V/zXF6+UxUCGYRiGYRimhNMLC9Oj1zEFgda29rTsYRiGYRiGYQy4vW26aDEWApi8qffOMQzDMAzDMOnhJN4WtraiQQiMj11Pyx6GYRiGYRjGgJN4a25ugZRzuDk6mpY9DMMwDMMwjAEn8SalhBAZLFm2Ii17GIZhGIZhGAN1HR0df1zYaWxsxPT0tDbw5M1mbLt3Ozq33IsdG9Zj9ZaVmO09heFZ/uYbwzAMwzBMOXASb3L0NE6eGUND2yp0rNuI9V3NuPrqAZyfYvHGMAzDMAxTDpy+88YwDMMwDMNUFrdPhTAMwzAMwzAVhcUbwzAMwzBMDcHijWEYhmEYpoZg8cYwDMMwDFNDsHhjGIZhGIapIVi8MQzDMAzD1BAs3hiGYRiGYWoIFm8MwzAMwzA1BIs3hmEYhmGYGoLFG8MwDMMwTA3B4o1hGIZhGKaGYPHGMAzDMAxTQ7B4YxiGYRiGqSFYvDEMwzAMw9QQ9ZU24FZHyka079qH7etXorV1FD3Pfx+9k6LSZjEMwzAMU6WweKsgsn4DHvjC7+CRLa2oEwJSnsWNH30fvZOVtoxhGIZhmGqFxVsFWXT3L+CRLa2YOvM8vvn1H6N/8CbmBHvdGIZhGIbRU3HxJuVufPzpT6ALPXjhe8/iJG737ffEFDNppx+H1rblyECi7+B30TckARZuDMMwDMOEUAUvLGQxKwHILObI/WpPPzoTkzchRAaNTQ0VtoRhGIZhmFqhKsTb3ByAuZK48u9Xe/rRGRsdw5yUWNSytMKWMAzDMAxTK1R82hSYzYkpZDFL7vuRsg5LVz2EfZu7saZlCZowibGJqzg/cAA/P9eL8Tl16tEt/QLNHfX4wzszWAWJA+9O45kryU9pZkdGMAlgccsSAFcST59hGIZhmPlHFXjeZpGVAORc3hOm7peQUmBZ12fxSx96EFta6jEydAKnLl/ARMMadO/6VfwPd+1Bi5SR0/eyfXUGG5oEmpoyeGB1XSJXGmB2BrMABHitG8MwDMMwdlSB5y0/jSlmkSX3PWS24d7tXWjK9uPVV5/BO2O5EFJ04N77v4D7Oh7Hh9rfw08HZbT0PRwbyOJYWwadkDgwoArCeEiZQWPLKmy9txvN8jreOdaXaPoMwzAMw8xfRHd3d1GZNDc3Y2xsrJL2GJGtT+DzD9yP5kvfxn9++7DvsxoLOh7Do+vaMdz/dzh4tTo/lLbqo1/Cbz7WCQCQcgrDpw/hzRefw6FT1/kTIQzDMAzDWFEFnjcHGhrRCGBiejwgdiav/AQ/qPJlY+P9b+Htny8BIFC/aCXWbrsf+54YwoXzz2OgOvUmwzAMwzBVRm2Jtxpn9Mhz+O6R0n7DHb+Ff/orH8dT+w/hv75Y5cqTYRiGYZiqoApeWLh1mR69jikItLa1V9oUhmEYhmFqhNoSbzPTmAawsHExMspbpQs6nsDH7/ll7F+5oDK2RWHRYiwEMHmzetcZMgzDMAxTXdSWeBsdwOVZILPibtzRUprxlWIlbt96DzasWIWGmalEslq4rA5/9GgjvvJoPT65LJ2XCRa2tqJBCIyPXU8lfYZhGIZh5h+1teZtrgeHTvZhfXcX9u//HWwZ6sf16UYsXb4RqxY24uaVH+CtwblEfiN01/o67GoWAOrw1Po5fHso2c+FAEBzcwuknMPN0dHE02YYhmEYZn5SU+JNCImhvr/G1ycfwr5N3VjbthMdmMLo5AUcO3oAB/t7MZ7QJzdOXspioKMOKyHx6qUskMKHdKWUECKDJctWgH9hgWEYhmEYG2rqO2/zDbHqafz67/1DrBJjuNxzHJdGzuPo899H7yR/841hGIZhGJq6jo6OPy7sNDY2Ynp6upL23FLI0dM4eWYMDW2r0LFuI9Z3NePqqwdwforFG8MwDMMwNOx5YxiGYRiGqSFq621ThmEYhmGYWxwWbwzDMAzDMDUEizeGYRiGYZgagsUbwzAMwzBMDcHijWEYhmEYpoZg8cYwDMMwDFNDlE28NTc3lysrhmEYhmGYeQt73hiGYRiGYWoIFm8MwzAMwzA1RE39MD1TvWQyxE96mX7lS/gDiMA5N3RRpOa4feDcQalLSPp3JHmciOZkGMMwDMOUYPHGlJ+8cCMFV4hw82u+MJUngyFk6Y+AorGEP0zpoITIBw5oLl8iAqIg4AKJMwzDMEwysHhj0kGnq4RGthl0mBAhAVyMEIU/OWUlPAJLKmECB0ReDKoiTifgLCxjfccwDMO4wuKNSRajaNMEoOKYwtvmaVRGecUlSspLeLxy3iCkbUYBl99l7xvDMAyTAizemPTRCTGN6Ar1tOniebalLhw5T1oQcqU/gTTUHUrAEfZoBRwLO4ZhGCYiLN6Y5DBqs3DhphVtFmLN5hwp6FQ3m1+f+eMRYkuZMQ2IPOP0qIUAZBiGYRgVFm9MMui0GSXIbIWbnaPO5r0FfTCRP0141rzxJLUhAkHZo8YwDMOkTl1HR8cfF3YaGxsxPT2dSkZppm1Cyt34+NP/Ez68tRPXew7jGm737Q+K4JAu5UY88eTv4ulNrbh45iRGiDDVSpTrTYJMpvQaQvBlUE+exGZAuAnjbumAEPnIpv/pQ4HkAhlobFCvKRiUzoBhGIZhEuIW8LxlMStzf+fI/flGZa/XVsQYhRuVln7H0SLpP+R9ySDvNZPFeKpbzbyOLeihC1rBTjmGYRgmLreEeJuby/8l9+cbVXK9Gg9V8FTwRFCn6cVa2LsNgPpBXEW5qUJL5ENI/VRoQJtRU6yUoazcGIZhmAS4BcTbbFG8zJL7OWT9PfjUh/8B1vjmz+7CJz52ly+1C0f/BN/uG4eUzbhj3+/hoWUjePfV/4BXbvhHZtn8KD730INYMvQC/t/XX8dNIYrHWi99C3850I5HdtyFtc2LkJkZwvkLL+NnPUcxMudXIlLWYVnnI9i7eRfWNLeiEdMYGz2Lnt6XcOjSNcwFpkHtrleluaMef3hnBqsgceDdaTxzJeW5PhvVZQjjMvsrFL1W+JPTU/m3BjzninlLeg1cIU1p+haIrVhjUccwDMM4ckuIt6wEgLm850ndzyMHMXDhCMYAAIuxqnMjWjGE85cu4qYn2PDYDABAiDGcOH8a+5dtw9a1XXj1ei+kRyWsWLMLS5FF/8X3cVNVGk2348k7O9B4/RzOji/CiuVd6Nr0KSwT4/jqsb6iIJNSYPmmz+LTO7vQMH0VF64cwziasWL5Dtx912Z0Hv8LPNd7RRFwltersH11Bhuaciu7Hlhdh2euJOGnCyqssJcOjC86wE20GfPJz2+atFPYVKfuRYWwNFmrMQzDMHG4BcRbftpQzCJL7ucQ2V688V4vgPwLCys2ohXn8Oa7f4fzGsUwdfEdnNm5Dds678CGY73oKzhw5Eps71wOZE/h5MVxqCIk07oIlw7+KQ6N5ISgbNiBf/DwL2FL1wPYdqoPJwousvpd2LutC40T7+L5V57HuZn8aqyGLXj8wc9gx7bHsWXgWfT4XGp216tybCCLY20ZdELiwEA1yIsUhBuVvMxJOKmZQjXuhyRfDaXIMAzDzD/mvXgT4jxe/smX8HJuBwL+/Vhke3Di0ii2rd+O7Ssb0fdBToxhyW5sXgTMXHofp2cQ1CEjh/Hujeli/mLmBHquTmHLmna0LwZwIx+urQur64AbF98oCjcAkDOn8d7FYezYtBZrlgI91+Jf78RgFl9+ySTvolCYnEyAMsziJu0tM62NYxiGYZiozHvxliZCSJzrP4yR9fdj47pdaLj0LmaEwKrVO9GKCZy4cBxZQjDNTY1jWjk+MTMFYAEWNHoO1i9EEwC5fC8e3+1fsZZpaQKwAE23yB0M1W6mAKE/g+DZcPG+5ZfLab/xllsYp8+SYRiGYSJwiwz9KXLjHZwc3Yd72m/HtsZ3cWR6LXasbgOm38GJq1nEchnloy5qux272oKnpczOz2+IuV5Tgs49WlSZfmze/EP0ubOAuiCOBRzDMAwTFRZvMRFiEEfPD+DunRuwY20rjt24DZsWAKN97+PCHOIJi/zo/sHxr+AbvTc0geajeiszVmvbzCLNlLbuR+xZwDEMwzBRyFTagPnA6MC7OD+XQefqO7F11XYsxhBOne/zvX3qJdO0GI3KdNrChiYAk5j0/gjF7ASmACxsbEnN9lRQv/HmStKKRsDaFDKYKS75lqw9LL0ZhmEYV1i8kdzE5CyAusVYZOObnDmKY5engCV3YV/nEmDsKI7rHGUAZOttuLO1obTfsAPbVjQB8hqujXsCDvfh4izQunYftjaWbpXMrMR9+/4ZfuOJz6C7MRmls3BZHf7o0UZ85dF6fHLZrS0pQrWaJoBWwImc3y7w8eFbu5gZhmGYiPC0KclVnL0yjD1dW/HQ/l/BphsT+W+kzeHS2f+GwyP+UVeIGZwZOIbJzj1oaZK40vcehg1vds5cv4m1930R64cHcGMu9523ZY0SI2dfQY/37dTZYzh46h6s27kTTz382+i+dgFjcwuwrL0LHU0Z3Oh/E2emkIgI2LW+DruaBYA6PLV+Dt8eiigKKVuoX06oNoof5Q3/WFvwLVJR/HX74hdINFOx/AYqwzAMExf2vBEIMYcLJ/8WL/afw3TjOmxecxu2r92NbWu60bmQjpO9egxnpwHIAZy8MGhMPzP1Ln703vuYWLQem1ZuQCsG0df7LXznZJ/vg7tCSAz2fhXfePs19N7MYEXHLmxbuRoLpvpw+OhX8a3DPZhM6ONnJy9lMTAlMT01h1cvJf3JkPgY9U2Y+JEWYRQCpaocCBS7ep4MIxL+WB3DMAxzK8KeNw0iewXHj/wVjh8JnKEjLF6DjkZAXjuKngl9MADIZDIYv/oSvnf1pdC0hZjF0Ac/xvc/+DFhZHJCYOxyFv/yhYJoSyLduGko34gL+2Sc5/Md6eF3k9EeOL9KpL4WIvKeOt9bqAzDMAxjCXveEqJj3W4sxyzOXTyMiVBRxd6XSNjoHNXLlqQ2Uhe8CcpDZ/nLEAUnHHviGIZhGEdYvCWAlOuwa81yIHsaJy9NVNocpkAk4RYmzmzCBKdHheYFBZZuDMMwjCss3hKgrv1ObF0ATH3wHs7Mhoeft9i+rFAuxRLzY7/aN0spAacVcUQ0VmwMwzBMDER3d3fRP9Hc3IyxsbFUMkozbaby1NV7FYmqWCjxRikl9XMbIhjEVvh4w7l44GRgI7dHpSGJxKUmS09Y9Vx2lte9MQzDMPaw541JEAu3ksE7Z3HQ3ozYcYPTnqFTqIVdQZSEZ30bO98YhmGYOLB4Y9KjmhSKgL1q0n1tl5oe1bkDtSKu+KZC/rO91VRIDMMwTC3AnwphEiE39cfTfwzDMAyTNux5YxiGYRiGqSFYvDEMwzAMw9QQLN4YhmEYhmFqCBZvDMMwDMMwNQSLN4ZhGIZhmBqCxRvDMAzDMEwNweKNYRiGYRimhuDvvDFO1NWRX6kNbBZ3w37UlP6VLGMUPSE/GJ8m9K9kBU8Y4tgkb7qmyF/ZoyKKOAlq0itftMSxKorQQJLcE5790vW63ACLUjIEKVcZO1UnXWBbY/2FGdOYhCjc0nJX6rBrjWBPkpeQSL3QBZa1//VR4f+nCIs3xo0Q4WbdqMNEmzExzYlyCzYl78CuLJ0gxZyNsVITVD0g3a+9aIkuYliCjgNRrHuTysDnlU0adOVPBQ39PV3it3oN+0n/RFy0tmlTCeyCuOgu11/ZC1gRllnUoo0rKl37yQg4l4VbsAgRDA3Dod8K1IvQqic8Y4K5jVeDwBOOngsWb0x8dB2Si4eOPKC2VLP7IKqTzpkIDhGvmHPqKIQ3dJj7xDJlx8FUE91OgFPE8Kamgy5hy5GFKE9pSDI1bAVbPPe2e1xd3Sw0aUkET96KRNDeVw+RqrfO+x0GES/dZhI3dbXTiC7+yXuhTc5m7Cifp85flI5lmg/O4o2JSMgjpKVw08cL90uUS7AFHvacOo1gQqFmSO8fF6OjPGLbd55Oubh6TVOg2EEqHTJVxaSFp0yfkSeybqAxJekVMck625QT7okHvQEE2iUDpBHBQ2EPHsZyIdSfKw7RYwkzk0cz6n0n42kuyCgQk2mX6t3w1R9FrFv3b0T7UmNq25fbkzIgpK86Fm+d0PURnksSeVPtnpjcIKoLizcmOjpNRu2ECReXJ1rXdmD0SLglVgqtrF9K0tNiK/J02bl2WNZBTAmnI8qsxENoIhbPDBb56MvW2xDCB5rAaWEIZMCuLekTTcSRQqShbQrGehnm/TQZmuzASNqg27Up6/I9r5gzLKqSeAaFtZXQeqn2b4pQUqNIXfvyRNK2r7BL1c0xF/+UApimNUWhXOMUrUtXjFtAvEm5Gx9/+hPoQg9e+N6zOInbffs9iYwO6VGd9gv9XiLCLagKk/KwibiuDc0jnrWoS9knbzMgS+2OVeqRqfKmFoqxbIvePd0TTXCESqw4Al47OuXExFpEbO+/X+QZrsWzYRaGcaHUaTwRlFpbCJ32M4j5StWNkD6+UNxBTx2xrMHgmVO9gmQgnXGhRCw8o2PBHGfeizcgi1mZ+ztH7lc71WZ/QsItTMlFeYgxPvhaugei5GEYbIQaQFjqpRQHI9090w5HhidjMqm0B4FC+qpBkStMyJSdZVICJhGRHzpsxXzYoKLeRFPddy2XUG+SY+V0DB4QERY6KarwMHmqzbXDzf1UNl1k6jclMUMf17A48V3qBdm+KOVj9nwbnr2sugMnHMrGTrD5Q90S4m1uLv+X3K92qtR+Y21z6dgIsROlQwh0lkYllyzGHiEYoOBil4H90gSBzcJofX7RsNDTwbzKJdRCz1HP1YVaIANP7dQdKeEZ4hw9pwURYV5D5yk87YJtrwfPRuHRdoQSctND/F4kUt0K9W6EkGIds+lviqcNXq1KezWt8Ai7WKYaxb2uDRIhCvXaZc2h0oSCUYl2Y5G+r/eguxL9sQiFGdbXWoS8FcTbbFHszJL7JaRswd0P/D72LenDT196GQt2PInb2ldgcWYGI9dP4q1jP8Sx0RklTh2WdT6CvZt3YU1zKxoxjbHRs+jpfQmHLl3DnNKLykwbtm79CO5duwFLGyQmxs7iyInv4/q6f4KnOq/jzZ/9Rxwc88axt99Lc0c9/vDODFZB4sC703jmSjl6FouuPmXhFkdTJo520FIHxsI+JS6ksYMq9SmE0CDzToiyP7H7yywndFW/JlGf8lth2eli+tMPnCIC5IMJIggp5m0Kwq6wrNuPCGzY5WApZHWp5rwbmkgpLydIBK9XK8mHF0oY2KZd7nILrTvhRqu9V+iDqqFsgt44NZDSL2rnT5VHK8om22P6wyEBLdt5Ptgt8AsLs8hKAHIu76lS9ynqsfG2T2P3onFcvNKD/vE5tC7fg8fu/SjW13meK6XA8k2fxS/etR+bFs7i2pVjOHXlA8wu2oG77/p1/MNNHchIb/gMVu/4LD6yeSvaxDDOX+7BhclmdN/5CWxvStJ+YPvqDDY0CTQ1ZfDA6jqbgnImtN45KKlIwk3444jiASKhmJ1s7D5aY5ZNxJJsEaCu0n/UkLf6f7mJlDd9darQTefyCnn7S9pf8naZCQQFXZJYtZ+iEXQ9osMbAukK3lgNDe3T9uZRt6Pc9TlunnQjJq5Hd4H5Y7oySLo8lLoDJFXslo3HdFqY2lZgkPAfTmCoUIvdKj55j83h1eu8BTxv+WlGMYssuU+xCs0jf42vnujDjBCQshGb7vginl57O/aseQH9/RO5YPW7sHdbFxon3sXzrzyPczP5yZmGLXj8wc9gx7bHsWXgWfQUXGQNt+OeDcuAqffxvZf/G/pmc3eivvVhfGJvV4L2A8cGsjjWlkEnJA4MpPN45uwxNgV2SShO64qAMlQDiPHAW0jE8UUBm0sQxWQtLRXm04livACvISJwJjUcbqjey5e33bIsI91+20QdwoTejrgYyrYw9Aenqon4unWNOjEZNrVVCx4+Dd5ewOhs8m47risLoOnkrauIagNhU7BtqdXHrn2ZPudhrACkTf7QuuxN1TFqI7N9yJv34k2I83j5J1/Cy7kdCPj3aYZx5nxOuOWCTaP30mlMr92DpYvbAQzkgrV1YXUdcOPiG0XhBgBy5jTeuziMHZvWYs1SoOda/sTiDiwTwPTVY0XhBgAzN36OkyMPY+WypOwHJgaz+PJLJnlXPZT7oTkynhadqO5JdIChntBjCLioF6odvP0nhKb7S7xsdSaYjrkWm01ZJSwiyvwckyjeotAWndo2XBP1HlPPl5vANegaSfgDjHWztA2oK98EPFNklwRoBRMVXfo2DFkZBZwhEceHr2iBLGI7FO68F2/RGMfNKeXQ5DCujA+iIev1Wy5EEwC5fC8e3+1fgZZpaQKwAE3eEm5cgCYAU7OTvrBCTGJiqjaElpaICzdjRq1d1EEpoQLwJisDZxA4akwoKeJ0Zqnk6xDfsDYmjoAvp9PTWfiklX/oGrkyl0tVISCI9a2mW5IrKxtFEx6E0ZNMF20n3FzyYPFmiRh9Bd95+RXlYO7PorbbsastGEfK7LxXJU7CyxTYJSFXtRdTHRbFUJIdoPT8ned1RE/w4hMdY8pQtjUxLlZDHav6Qqo9pOffcudb6epUTsp1va55sHiLQ77dfHD8K/hG7w1NoHlazT01urSpVPP8rk3ll4Dhp0XM+RsOWZ60yy4RqIRS6H+DSUbIJIleK7CUTV3ppPoJ/XLIO7EaK3+jTckmX82EthGYAsTINOS01jkXpYBr8sFI+mp9DpHMJdiUoS6jJOpEyJo3l+jxA2sCWGRSbdXpFnjbNEVmJzAFYGFji1346QlMAmisX+A7LOUCLGxK543Q5DHUchly3nc6AXkh1Ugy3wUaGmilRttYeRuvSslCDWV7PzTHo9qsGmxMxxwwtVumZuu1OaQapWpXGkj/ZujtSOriQroL67JU749LftR9rgREf2U2SAZC2RaDkoSbfVQmSt8eOX+L+qC9RkuBZU7dLpKu+4p0DyxxTY/FWxyG+3BxFmhduw9bG0tFKTMrcd++f4bfeOIz6G703JLxKxiWQOOKXeiqLx2vb70P25Yk+8ndhcvq8EePNuIrj9bjk8tSepTWDgjSFNTcgOM8afts8f5HhHcaOSxtoAb/GK28dB2FPX1y3jDWGZd7ELMxS3OzvLJcBv7zl5Xz4Oaod7VBHMozSW2kjKshmXpLy0LEuRhhqTD8uWsChmka6p6ZhFslRZtKJDuo8pL0qVTVRSnhZLIItmJ/HaUGENo2/dhhqF+aU7Zo+wGyHwtJXbrlzdOmcZg9hoOn7sG6nTvx1MO/je5rFzA2twDL2rvQ0ZTBjf43cWYKJV/rzGG8ee5BrO+6HU8/shIDg1cwmVmCzrY5XLs+AyxPzrRd6+uwq1kAqMNT6+fw7aGUei4J/0ypJF6CzYfxBZWA/4OdpUgyH9BJclKX58mstLBXmYZzEXC2a/5DNVMhgOl9O2p+QRJbRNhqGaRMOAk45IvKNJpT26Xy9f64tdujjFcWq28HesrdQegkfntkoBkawwLwlWfJHuH5VwkfA2nYsz2VSPhqwtZ27a9rpFGRLChWtFJF0t9f85IHpwcswzn9afc+MUqR0qMYkVjxXhpaq9qWDQXI4i0GQkgM9n4V35jI/8JCxy6slpMYu9mHw6dfwxt9fZj0KBkh5nDh+Nfww7mncN/aDVi3cinGx8/hxLvfxdU1/zM2JmjbyUtZDHTUYSUkXr2URWKz9RajhMw/oQniUybE2JE/oAgaaWgULuvi1B1B/WKBPtGwgczc2MMiKKLDJw5jP/+lj7ViSCgvF4RXJPsTCAox20w1+xa2Od/S0NSItqWkb/xeFCmQVTEHMh//Mwwtlq3zrDU0tzzNH5qvOsh+mw6oPhiQiURUTHS0hASby8M8EY2sDmrfb1BoMrCBgENDdHd3F083NzdjbGzMbHBE0kx7PrBlz7/ARzpvED+PVV1k6vJPU6V/ShBmBwQcFYbccSuD1DrPKGN8jUFNN4iSo9L5IV83hKf5CwORsXmTxhWbgUU97C1vFxuodqgLGqX8K1z/pVSKxsKeQhz13Sl/ILv8k36b2OF2JYelniHrh1GNlJkYXjarexj3RmvKKLToIox5QrDnrWqI+U5dWQk6zPW2e3+DUonsOxR4GTEwpar1w+WiSf9ZXzZJvSlVCZQnfZsBOIlPmhTTMKal8QCFpQDnzSoAACAASURBVBkR7b2M4wFM6v6GClxp3IVVeeuSLXiVCwfpwgh45vRBg3aliFegmUxw8V4m5ekMJkG6LN3Sc7TLd1tjOqxMGNuni1c3UuYwPrhI6qBm13g4zfqsGQ51WQbGPJ83Ths6F1KyeGOiIgGprkujKq/MCzjTo7AgoqouZi9aV70IhNZ2lh5TnD5RYkJz/ToTImWRWucT8JPpz1tPm1BEL2jjwEd5Dwv/JOg9sBt8PTedqAua3Uj4vFLUXIthvYHxWtS2HRVLr62VRyWSG1CtADFKXRtVFc86opUodVsjxKYPGQW/vuyt+yFBPIfnk3b3hpo702TEmvq0bHo21NzPULUWDEaPe94AwdAs3pjo5BugUNUPUdtzLzJoOgOvLhBkiEC+JCGiTpdGUk/pVNrJJpbCHFbYgJRwdlqV5XDrbAMF7muqXiSNuE1CsBXaE1EVdA477UOQQcypeabrdAtJ3WYkNjxf0AfTvSJr8QE46Did+ifccFG0qbUy9ApUBxGq1qPQe6RZdJG6YCutD6HsJZMUUimJkHIxOBFCe3miHfOaN8aJTB1RtTxPb4GzVPCwOX7HB1Sn4MbAUd001JO9pidNefyISljn4WK2abgpC5ZTD+HEE7DG2GnUg5DLi+YYcplXNbgZQw6bUvd5FxPCxgyNjIhMNSyMMV1LJPsiiVDFEocCdvfWhQRK4SElOKVsWUiOwdjzxrhB9aImF7PGC5cLLwvR/IEcXPJUcI2TwiJtw1O6xbiU1lO+1qsSEi6p/Kwz0NyPQh1IvJP0J+/Pj0Tj9TORxMASc7YuugGe/InTgUu3dWNoVY3bRdo6i3TexcRRKlK4x8iA2dkfidjVyLF+hOGfqo+aeTCE0aHqZCThSSsD6vpr/5cUDI8hlsq6EIzFG+OOrv7lVx4HvqmlDe/9I8M9cpr4xsMRREO429r5dKK4zM6UFVO+KbgvokplezEfIX0qYCwVoCQlqZmraNM1js9I2vTU5u1yhQkWTTKk/gTkiOmZtlK2RhR7tkS/zvxIkoRhtk/MNslI317xr1M7Jq6JxRsTDaMgk0XfcTGY7rHKG9XjkVPknyFDCzt1aJKO1PYpV181DEapkvRklmWWLhBu2Ni3JU4F8f+Jnj2hekRcQafiMEhH9tbWHBolXM7sYicY096K3tPgk0Mi5ti6f3VEHZp8fZO6hs6cOIs3xom5OdumMu96bYZhGIapCsr226b8sgLDMAzDMEx8+IfpGYZhGIZhaggWbwzDMAzDMDUEizeGYRiGYZgagsUbwzAMwzBMDcHijWEYhmEYpoZg8cYwDMMwDFNDsHhjGIZhGIapISr6kV65YBce/PhdWDxxA0Pn3sfRI324Kavh53sZhmEYhmGqk8r+wkLjWmy79yGsFQJSfgyPnPsenv2z53B+hgUcwzAMwzAMRV1HR8cfF3YaGxsxPT1dtszF1Bm8/cL3cfCt45hZdSe2bupG29jP8H7/VNlsYBiGYRiGqSUqvuZNiCymh3pw4NBJzEGguXlJpU1iGIZhGIapWiou3go0L1mCOiEwOnKt0qYwDMMwDMNULVUj3jraV0DKEVy7fLPSpjAMwzAMw1QtVSHepFyI9vZWAFcwfLnS1jAMwzAMw1QvVSHegBYsWgxAjmFstNK2MAzDMAzDVC9VIt4Gca5vGFJswu4Ht6B1QR2ElJU2imEYhmEYpuoQ3d3dRZXU3NyMsbGxihgi69qx8+lfw0f3b0FzXek7b9d+8q/xp9/vr4hNDMMwDMMw1UZlP9LrYeGmR/HwfVuwYPwces5ewtjkLABgrJ/nURmGYRiGYQpUhXiTsgV3PPkEOhr78OMv/+94fYR/YYFhGIZhGIaiSta8NaKhQQAYxfh4pW1hGIZhGIapXqpEvA1heHgWQDuWtVfaFoZhGIZhmOqlKsSbEBLXrlwFsALLVlaFSQzDMAzDMFVJ1Silq9euQqIeyzpWWIWXUuATDzXiLz/WiN9dzZ8VYRiGYRjm1qBqxFtz82JkhEB9neU7FBmBNYsBQOL0cJqWMQzDMAzDVA8VfdtULtiFBz9+L1a0rsembWshZy/i+NFLdpGbBdbVAZiU6LkJgF9QZRiGYRjmFqCynwppXItt9+7DqqlRDPcdxOt//028PjAHiHAl1rBUYAWA6eE59KZvKcMwDMMwTFVQUfEmRl7AX/zBC8pBOxfahmaBOiFwekhizjIOwzAMwzBMrVM1a95ckFKia4mAlHM4MzhXaXMYhmEYhmHKRlX8woIrQgi8eHAaL+b2KmwNwzAMwzBM+ahJzxvDMAzDMMytSuqeNyGAR+9aisfubsMdWxajfUkDAODajRm8d3ocP3lzGC+9fR2SP9XG3OJYLd0UgY34aVYZsvhP9SGK/zBlQ/r+VCVcL5hyI7q7u4ttorm5GWNjY4klvmXtQvzLf7Qe29cvMoY72X8T/9tf9uP0+YnE8maYWiNUaFmMEPEGEZHsACRl3hjv3yTTTzbF2hyAhe9PNAr3xzFKNcqpBOtEbdYHR7wXWfCgeB8QfV6VkP6hWutELAoXLP2HquAyUxNve29rxb/5HzdiYZPdzOzE1Bz+xZ+dxcEjI4nkzzC1hlG8aU66OeLCB/pEtVvkCAn2jB7dKJEvxghaJUgSoikZKmlCqmNY0vVBl0wiBSjITZtYVaADfKhNRHqOh1Ft1xIH9Xqpa6vk/UtFvG1eswB//kfbsGhBnVO8m5NZ/OaXe3DmwmRsGxim1hCCesoLdplCu0OEJM47j1U2PZRNT2eBMVrgZBrdZjRlWwUargRRjUI9JlQcNV4FRqnQLFOtE9FveFXVB2Zeksqat3/+ufXOwg0AFi2owz//3Hr8xr/rScEqhqkVgqIrMBg4iLawoLYmOeESXpmR0AajCkE7VlP+ghA1k/SAXOkRPMq9NXp/Y9jigmV9KASQ5gPRmG91oVpRHxyocnJ9cJxPGGYJEhdv9+9egts2LY4c/7ZNi3H/7iV47fCNBK1imOqnsPwkdFZPe9JCtDkmrParRvmjBLAbQ6V1h00GM5VFIZ2iXSI4J2SRhxbrwKqATHa0iSwk0vCOxkJdc2WXsZOmtyTZehDnflP1xXR1psaUTL2jtJZ7eRP3mpxSkJ61DlGsinfNYSVvN22qm3DVnTMY4DmYuHh77ENLEkmDxRtzy2GzjErXmE2iLWSeVehPBcK4jFNW3WZefQW6MEEe9cSzy0NShtuUM2kPueMYpYrcBBFNSeUK8uLaOJSJkIHOxWPnivuTUJQqE0QGvfC+B5PQjONkbsbWYRug8CClHKLTKPQP+hz85RzZKiuoFMNz8YSgO7rSpoMKTly87d4c3euWZBoMM6/Q9RD5zip8bBH+rWrREJSQKr4xGKYmw78hkYwHxTSsuGZSBTgOEmVBJ6hlMJDWdFXwR7lGx5uaiECzzsDhXDVD2B12KbV6qQESvNDExVtHW2NVpMEw8x2hez2VGICcBJsvvn4awjQDSY+blh/sopwNSjyfuDOO+HkrpX/XVcGmPkgX0vXZZudaiWROjGuQ2j1dop5a4vpBz7CBXlcnTOY4EsHp5pBQHnVdQtoC21ihzdONVG9QMjXcW14RAp0VPQNhO8GcS0q96pCblvD1Jy7eZmYlFsTUXjOz1fZYyDAVghy8dOoGgc7J7sO/Bu9dyORIqBnUUeWkr7WbBnd1XNZqQTV3EXYZwcORB/7gvYnu/UtJJQZH3EjRqb3QGCEVUpI77nXCImZYctFVcRT9KJS/kfNPAnevoyCP2iVr84jiusovakC351vqqt2vX0fY6r3ExdulwWm0LFoYOw2GYfzkHDJ23jajY8ko1tT0UkDpif0Dpmbdk9RHpAZtXRKktzCqutI5/uJSrkE7qXwor5EuXAj0fRF0dErp6YRzIqO/EthVpKmi2VadpEUZ27gJR/kfj4oJYjjf4zAdn7h4O3xmHNvWxRNvh8+MJ2QNw9QgWs9N2ByS0Is24Tlvkad62P8UaEjHQ2mMKkwy2L1NqJ+m8gziqlfG4anaHNT85JzkU348DALcNW/qVWLrqNK2YKPZZYruOVBc0K7z1kW9cVG8qA7lUGxTlRQViqosPeDktkrt2MZrat8eK0HQaxzhjVQhjW1Fq80TLpPExdsPXh/Cpx5pj50Gw6SJbNyGh/c8gtWyDwff/RH6pivf2+i9ZRrVUPT8GFwAQtPlkjpQn06U2RxVdPrSJzo/qXOhUeOwxytjv4wqpKN29aRpC7aUj7NTJ/7XDdyxFV9k1AhzQbbBwlyq1NulkepFKa5zERgUpUlsBk6ptkYU09aEdAreLbf2bm7jOmyrvc0KSxLXp9awxMK7keCxal/zdvTsOF47PIL7d7dGiv/a4REcPcueNyZdGlfdhzvaOwF04o5VP0VffxVM1bu4UYTSWVJiTJ1iNQm2JASDCH0oDbEFAReE/4mVfpPQtIzK9/OqijilvIqhEAo7GDdGmcaIE+cWFr0FMn8L0praszSyNNgFI0hfIM8RVeQnJYKFdicZz6cuTuWfJ+PhYL/7A2EZUNqVfjmHW3pJkcovLPy7Z/rxV/9qB5Y2uyU/OjaLf/tXi/Cxj/4rdKEHL3zvWfTEaIGy+VF87qEH0XrpW/jTd45GTodiUdfn8YXuLn9+8gbee/3/xoHhoM2u4Zl0mR46gf7JNejEAM4MTkHXsqTcjY8//YlifTyJ2337cepnEJ2i8e8Leqd01CDabMVa8LIs3UJW3gvPW1qUx0HdDY7Wfi+daT27hVcpfAA2DNip3H5nf1aSWVP6VAkUF78ylNAofv1ziz+ZQjo+oRn1bQw607iOG0EWqn8xglQPp+R5E96bnSKlq5P5pRa5+5zq8r58uQlBPX/Eu166n9At9KSvMmq1pEhFvF29PoMv/slp/Pvf34z2JQ1WcSYm6/Fv/o/juHp9E3Ivm2Yxl4ZxCTEz2oNj/aXp3UXLdmOD4fN0ruGZdBFjb+C5F98o7BlCZpX6qO6nZaDpkKW3zUG00YOLhVG6U8ZOynMlRDwZcKEQKXi8MvR6ocIoYRoFw4Wsu2elJHIT1fXOdoRHjTWOxIqsimG94pfUiyp0Mv6pR92LL06WmQ7SgdzuufBtBzRVtT/Th1Qib38lCkesHu5iYuuJTsQQIhHDArck+4RUxBsA9F6cwP/5tfP4t7+10Sr8G+8sR//FCQBZzM0BVS/eBl/Hi4Ol/a7dO8zizTE8Uy2o9bEM9ZPyPqk9u6rRNN42o2gTBh+PRSej91GUFrGrr7uTKAtZSJuKT+zKgmipt0OqZWYgVI8ZDtJeSkcco4R6E9SBVSuAAfNdEkoYf/kn7kUhpz51ys7nw/UH09aLECxHfKtnHYt0rdqG04ORknjCayh1Vd1p2WlaRO6zEkYEiz1w2QmUQ2riDQCO9dmvXRscqscsAGC2ODjOEuGkrMPSVQ9h3+ZurGlZgiZMYmziKs4PHMDPz/VifI6+PS0dT+CRHbuxemETZqau4eL5l3DgzGmMq2tsMq1Yv2E/9qzdghULW9AoJzA+cRnnzr2En/dfxGTqj9N+pKzDss5HsHfzLqxpbkUjpjE2ehY9vS/h0KVrmPPY450mfuZCp931yhZs3P4R7F23CcsagImb/Thx/Lu4tvZ38VTnEA69/Kc4NC4i2eN8rW0fxj/etxcNA8/ivxw+5TvXtfsP8LF1M75pZilbcPcDv499S/rw05dexoIdT+K29hVYnJnByPWTeOvYD3FsdMZj+0Y88eTnsKvJb+OFo3+Cb2vrqlofzfWzQHNHPf7wzgxWQeLAu9N45oqlgLBREaoeMwk3orfV3iKtzgux3SBevN4QOhX/KKt1tBQvpTRaSDUDfbJ2JD1wh+pir8JyKGPbATksDCluQyqHcrOS7Q1lceDzHtIi1LJEeL0IRUkxokALFdf6qB4kbYTwSVazRtNmH+POEWLSLjXi/iZAsD0ZrCnT8O3LRhI/7kU/nzqRqni7MjyDoZFZLGs1ZzM22YSb4yLvyZhFVgLAXMCzIaXAsq7P4tPdXWjKjuDy0Alcn2nA0uUb0b3rV7Fx+XP4+hvvYFQdnZruxBN3rED98Dn0jjajc0UXtmz7ZbTX/yW+dry/KDikXIztd/w6Pty5GDM3B3D+cj+mxCK0Le/C7t2/hrWLn8Gzx8/FEiguSCmwfNNn8emdXWiYvooLV45hHM1YsXwH7r5rMzqP/wWe670StMf6egXat30GT29ZBTE7hAuXL2C8fhl27PkEBkcStCd16rHxtk+jvfEiLlwZRlPLBqxfvgeP3ZvB2E+/g/5swZ4RnD//DpCfyc+0bMGOtrAXa9T6qK+fXravzmBDkwAg8MDqOjxzxcJPZxw37YWb8G+UTlH3JSDYtArOCtXhYyuIfA6dYgdPv6BQCCgA6H8b1SuKPGvjAv271/dBG0tqHB2+AdzGFRChoFWRkGRzM4wgwTJOMN9CgqoQEKWcrbwXSr3QBSOiKRt2kYz3OHb5aBLwXBshqf0HEva8kZjSJzqD1MyJ2Bgi61tD9+RPx06puVqeqngDgL/58RVsWNVkCLEYdYt3AnIYWQDFaSkxm9/3kNmGe7d3oSnbj1dffQbvjOVCSNGBe+//Au7reBwfan8PPx30l0xmySJcev0/4eBIzguTWXw/PvnAE1i1cT+2nOxHTyF4w1qsbLiGgYGX8dKRNzFSGBgy6/How/8It3Xdjy0959BTrvnc+l3Yu60LjRPv4vlXnse5mZyhomELHn/wM9ix7XFsGXgWPYoLyPp667bh7o2rIGbP4uUDf43DE7kLa2h7Ar9434bE7EmfVWge+Wt89UQfZoSAlI3YdMcX8fTa27FnzQvo75/I2SkGcfLE8ziZj7Wo6/MW4k2tj4b66eHYQBbH2jLohMSBgRjPmkSHZBJuWgFiFG5UOpamBY1CYWGyDcqac2VWjnRl+Be4e7WmMlBIz7YvDbIoIpSB75ptw9pDl2+MBJ0z9Y/8Pjmkd3i6jHkh+RcCawZ9v+73rwanq45+VthkkG3ViKnjrHsJR4GZRrIUpP1RKgNZB2DlWAs1wbqh6jKyqGOGKIH+LgyDYz518fbMDy9bhDqe+yMEBM7j5Z98CS/n9320rMPKemDu0pt4b3S2eF7IKzh86udoX9eOyUwTgEl/vJHDePfGdDF8duznODL0GFatWI5liwGM5bOfPYkDhwpDu6fTmuvHhetZ3NbZhqULAZTrSyZtXVhdB9y4+EZRKAGAnDmN9y4OY8emtVizFOi5psQjrvfo4GNY1eG/XizqxPJ6IHvpbRy5mS2Gnx56Hcdu3I8H2hKyJ3WGceZ8TrgBgBDT6L10GtNr92Dp4nYAA5FTFsJfH43108PEYBZffskk76wtMOwFT1AeBGvhpg8Wkhlx3lYAKq9fBV4+IJ9Qc+kHFrNTg6zL+iCXgDaXaON4C+xEHEKjjrxOSspzXHPKSfMG7PBPBxoTpG57cUaBCGRtYPz7S0pNl7pQ9BDrRm6NJ9I+K7i0UVt89kPdESDtdq0wxj4qyWvS9XHqE4NNUpLaDOAqflMXb52dq7Hv/geMYV5//VVcunghPLGGRjQCmJgeD0zNTV75CX5whY42NznqW6smRBaTk1MAGtCgvAzb0PohPLDjXmxauhwL6zO+gU/KDDIpPfCS1C9EEwC5fC8e3+13Z2VamgAsQBNxB6nrnZgirrdxIRYCmJy+CekLP47xSUJ4RLQnfcZxc0o5NDmMK+ODaMiW84YlCDGQ+6q8Uv99A0aIcCMXgZt205wG96YtC128YaGc91T+OoKv34cutDMZ5EkjWCjuA7r7r1pYk8RY5S9+zxBLkPpic+Hf9Yiw0CnbQL0oBdKuo/QmZ1uQpHhwF2pWeYQsTtUKgUp3eVpXV4jdsfOKFi9SEkok8zrNkMzyDc8vfr2JePuk0n7qQ+3q1WvwiU/+ojFM/7k+O/GWMnLh3fjY3o9iTf0Ubgwex7mb08Xial5+B9YtKrNB+Xu2qO127FK9YACkzMZrqLqv71fKngQRo6/gOy+/UmkzIiDyvZsykGk7RI0Yg0Y2hHy4tygCI9zHQtI2gyWdQP6P5reCfD/FRA7WhbwTqISFD0WFFYXuyVw9FcWk0AEmqcaWu9CC1LESm/Yz49Ep3mtzP5WbWfWsa6SSSWCQ9x6IfW/z8QoiNVJZVqCv9ZZlsZdytb8SY0SsBx3jI00xBL2Tw/h9NzW8WsjqsTypi7ezfb348//8n8xhzvambYYVHevvw5p6icHT/x/+9uQln3dv657byy/e8jfug+NfwTd6b2gCxWgJcg5ZABmR8R+WGdTVUTUwZXtC1xJKizC1jAg0UkqSBQd1y8dIg1jXee5M+B0cqtikFqoQPRjV8WueTr3WFz/Sq0QO9HH6Md0fj8ozTMXYOFxcmkMxWcc2FHcw9Ild+5vv8WuFxPc8jEgg8GFTaZ4G1JpErI8sXkrkr6EGR3krMWs8HaIcfKdzddr3KxdpQZrlba+h0ZV0ZKIfoXVFIFduesvjtCslbuh1+gMIf1WPaIOf1MXb0OAgDhz4aTKJzUxjGkBz42JkpPSJqwUdT+DJDR0Y6v82Xr08qU/DQMuCFgA3cemaX7hJuQALGjP6iGkxO4EpAAsbWwDoxFIMxq5jDMDKlg4skqdxs3DNmdVY2UJcb9r2ZGcwA6B5QTPqpES2uIalHosXLgAwhukklpFVKWGf8FC3TR6FwGdCqE6NEgvWAxIMBqshBXGMsEuSE2T+qMqALX3H9WucknnYT2pgV4VudHOsszRAOioTXT0fUmkLa1WVvEMkHSnSS4JC+Uivg+cj9IoMAUwfHLZDUM9wfqS2lRQsQO5pR0Ra4B+nQlIf3Vaf20zWB+0ID5srq8BjrH0WUaCu0yJh4f3Mi7S9QpqyrFD65Kd+CTt27iLPnTh+DN/+1tftEhodwOVZoHXF3bij5bjnbdOVuH3rPdiwZAqjZ9TFT/ZcvzkMoANrOtahbnAAWSEgpcDC9gdx21Jz3PGZCQDNaG5qBDBjDmwbfrgPF2c/hE1r92Fr77dwajrndpKZldh73+dw++ILeO1nX8PRqD+qPnUGA2NzWNm2Hx/edg0v9/VhrK4dm7c+gY11hIsrbXvG+/HBNNC2/C7saXkfb+bvb33rfty2TADT53GhRn72duGyOvzuHXXoxBx+9l4W3x6K2EQ1T3/C/4/vNOW50a/LMQu3YscYaRBwROTtJKdhlNFZ3fWWBVnU1MFoT+KWuixwgCpy17zDU6dulN2Uj2+c1QoHY1LJ4C3n0E9+0PXCe0hJxpSl5QlB76XdPor55Fuz0emZ6FNLdIjntkIbL0Ct7jIdsTkVJU6h7rsm69ZePC2WukXFB5fwp42yiLejRw/jqY88jUWL/POON2/exLe++bf2Cc314NDJPqzv7sL+/b+DLUP9uD7diKXLN2LVwkbcvPIDvDU4F+IR0DN47nX0bfgFdG36VXxuWS8ujE+jcWEn1iwZxYXhGSxvN8S9fAIjG+/H5tu+gKc7zmOy2Ft8gMPvH8IVxSar8LPHcPDUPVi3cyeeevi30X3tAsbmFmBZexc6mjK40f8mzuh/ljMUIa7izSMHsfme+7Fu2y/jV7bljs+OvoL3h9dgz0olQtr2yDN4o+cMNt62GXvv/yI2DJ7HKFrR2b4eLZmbOHviZzgfYz2TbLkTj3atQ11+P9OyDACwZPWTeLyl4NIbRs+xAxiI+aLDrvV12NUsANThqfVz0cSbSbipAdQRxLMfaA4eoaMbeIpnic7Xzl7oe+XQOczCwO0/6N+VdgO1pELo83U4rAmgGdgtTbDNOGwC3DohIpTph6Xosk0Rqoo71AsiGYd8zbHKLtq0BlQw/xiz08RmWTDlF1cPklrNpYy8D+Ah8coi3k6eOI4v/tYX0Na2zHd8eHgIs7P2HwUTQmKo76/x9cmHsG9TN9a27UQHpjA6eQHHjh7Awf5ejMd4M05Mv48fvT6Hfbv2Y+OSLmxtmcXYyBm88caPMLLud2H6oa/s0Et4/h2BB7d1Y82aPWjK5KYdpTyJgfcPQX0R1ia8EBKDvV/FNybyv2jQsQur5STGbvbh8OnX8EZfX+xffJgd+jH+5me92LlmE5Y3CkyN9+Pk+RNYcfu+YPmUwZ4b5/4G35p+BHs3d2Nt+y6swhRGR4/hzdMv4tDl65GFOQBg0SbsWncb6pQ0mtvuKL6AIeV5DJ46gIGY07MnL2Ux0FGHlZB49VIWUb08ai9XOuz0jBoIGTosRRAaBcFXnO4ShbyUuRNP2tYLeaW661F41Lo3ZUf7EkUkB4VdpMiDu2cKKJFZL10izovMgmVL/qh8wFMrC4GVTCOO/oV0SaebUA64TNHB/p5ahDVGzheJQIzleWXH+1SVv3dxBFzaeG2zbufeyuPUaLTpp7J+UQCiu7u7mGxzczPGxsZMUZhbACkz2HXv/4LHV1zGwZf+DG9OuAsmKRdh45bHsTnsJY+bJ/Da6R5MlP1XGaqPhoY6vbct4D0TxK6F103riSttWDgdArbEuXv+MdbQy9HvOxDn0hpN7NwF0QZ4jUiPEN2JhIsqVGwWFuNb2WBhnKlOWCZRhDDceC0OJ8O6N+PnblLHcOE24ieg3yut5jzC0qPg4vVSUck/ykYtEqX8vVTkq1xMldO4E11LBJAdxFDkJYQL0LF6D3a1mhuMHBnBG6d7MBE1m/mEpocXqhoQ1PmgIiN9c6RwE/7dcEMdw1uklu9j/R+q0LjUlOnSwJqTJD4VQqFJVpsbIZxt0i+bcPPGTWi8DTWFEqZaT6yFcZo6UTwUJhRd7ykZwNJTaZmcDByh0JVJhMpACDUnr3HAeFcbKG+s6cZ5wyhhi21IeM4k3B84edLyFhT7N8eGZjCdxdstjpQL0bXlCWwpeMgyi9DevgUrGrMYPP0a+iLM+AGAEEM4dOBLOGQX2D2DeY628wwTbiYlq0NUgQAAIABJREFUQXp0iO7NUnQkftsElCVLhpFVBkMFlrfFESS6MURvlT+iQ+EkW4xUaurju2FRWIWdJoVBroCdkIFacQKxwpY+Wt0DB5e04vSxjKBs0sv3ghEiQPYvMZL0pWe02xjbYIgujOdBUu0bnWww4G0bMRMtiMoS3kTdKguLt1ueRqxYtQe7luYqhJy9idGJfhw59WO8du5iBX5k/tbFVUDRwk2om/5jwQQM+eqkXorkBRyF3ykjPAc1Q7ywnEIjPF4SwcEgEEF7OFzehSVlhnbR2ft//PtBZ5c6+qqejpTxVmklO6OYCYyBoY8B5szdIiYuiIptgSj2sLtgL0ZTwNCGgVSWf5WhY0ogj8JzHXQ10y0DXvPGMFVCY2O9pv36XWalQYIaaAQxiNBr30gNYFAWlg65ZAhby0Qe1A8LXt+TzSSNGWd3nD5YHPGm33TGX4zU3GIUD0EC2Ah548kIri+Lw8agSbWLGAKoouItxLhUxJtvo0qRvj+xYc8bw1QLNt624gbtIaCE23yBlA4+NaYXF6bn28heGcsEoglERxsShZonqq56ZO8DDLPbcGeiCLdCkoWDhgXnUUxKlHLlw6TyvMPijWGqihBRRgQphaFP6Jx52nPKmeREh0MPZggeOEUeoFB9bjGxSCIZ6WOIndAATBd3FYzsIfUA1GmnqhZfuGlxGbDV6dEYg31k01nMpUNKjmoWbwxTNXgEk64T1XrcDFNpGo9eLOFm3cnbrOlwHZ2JU1YDdoIjk4NwS/hkzNDhaYWPNd4cLV/fDOAwDRtiVLhH1hHHAk2s/JN5tqksFka52F6Bifqaob6pqcl3QN1nGKZMCOInyYrniv/4jgVkmI1wE5oBR4kQTbhFGcrUOMRrgzZeOJOmSArD5UXSs9FTyYVOQY9Sk6aFfX2sqLlRaRjUut6QiILeYEY6URKDujxneyrkbYvTVLXmVqPnMEXVyZ43hql2qBE6RLjRvVgCHjeLuC6hzIJAGg9RacYScjrVEhLcGtIDGn3ESW2cypulpl8+b0/IzQtxx/hO21S4GhNtKonaUgEB5K1X2gmHMtmSGCk3FAEWbwxTndBuM+WwzuMmAseocNHtMp928QaYh2lKtJo/IqXzKAZeQAw6MUMSiYk2gyoTbt4MQoQy6CDlMcQyZgFS1EewIHK5m0RRJda3ueRfBkFXc+KMokxzu4WyYvHGMNWCYQ4sqNdcPG6l4/qp0OS8bnEn0sx9oPCMpva9ZerizJRzzPwqNrBZ3BBKzIXZ6z7GaVIU+dQs11m55h1fYivovsBSbURVqtVwLeX2HDpec5JFxOJtHtFQ35Dfor7rBXIE0zh4POcI748pkieMlGp0kycp15NRv/HnH6eDYXw/OSKVI57Aga1iv29qUvpz4XGpZCh7AAhgLuvb9aMrRwcNZ/PRWeNdtfC6JYF3MlFbugIo/QxWNYwaBDEXpFWVN8JSaNjYbAoTSdiJUnu2zVsXtKxlXqXVtogktqkCqrbrUG31diZJ3eDY12zx5nuIvSze5iXSc9/DfPUm5WY67qlZioAopqyb+tMqEwEhPJJIetIsJpwL49VCvg65YJL075cCBHMO9fQYV2YJT9I2Lgq9UKqrs+hZQkQc6QMzTRGGhK0UQvlrDGRrtOlGmwalKimTNFEFs6/pWt0MU6puMQA4/pC3p+5axgu9lFvgnieGQ1mVfuMzJDmRr4f2ujwkQSR7T8mnAL+VkggWZ35DjcLibV7hl+oFQaHzoAGAFFKpE/74xV9i0yyap7BwEpXSzJtc6ndzLruSY0XdR1GwFcWZV+R5MlOXRxW8gWH2O+HJ26cclTBRxiKbk6HeNFvhlkBZuA/VZcb1Guf5AK5enm+Mi3ztulTD8Ncc4WnrkdqOy/ztPL/PaeHa3oWnggV8ALp1qN5uLETIeYaL8lDhzo7F27wj2Ap8IgyAOrD7+zCLHs1GEJg6ROHfJkUdpMd75hFw3viUqeplKg0sIOCsWqChmwq9eBm4xuhtnvrpK0P+JuEMmJSfE4LYdnVyebGd3ahqoVhrVNwVpWljgnwWChcONuayaIuN8NwI6n6EPgi4eMXyean3Xu0Tbbx7sXEYQ0LtiDCdK8DibV5R0jJBVWMj0PzTnR6Kjz3qCYNXTo1ObAQaXT5Jr/dMNdXrTSs47siWTK170ISxe4KM6lcKlhnlHAhuC3+JWzVuC29bBMGmPhgb5b2ng3XKwJOwoM5R0YhBXRfFe85GWGoHIg0R+t+KiM9od79c6PoXejeZByImClStKIvn3TMOUMfLbg+Rg9SdpTpRXZIWzY7F27yi5GPzizQEjujO+9MCpPB+u186D/7G4JoeQKDkHSvEl5rRVwCe9XCGBls8oURWDpltTKA7kKUEvWVDea+sS1pTyLRH0zJJw36oszGq+81VJxB1QZdO8flDl40qeEMHB3/mgdNh0/OEwE16oNF6KNRAbjHcDPDifIGKPDOocpsqx6RPRZyZ5co0ULnMws0uDc9xx6cRFm/zDlXAeY8XMPjmRM435D+u1iraw+PD5DGxeWyzcYHE9Lh5j+tkmeoZk9qQliTV0YhgYtqkibDGoKaToS4pCyUdaoqNrSYl5j3hmWSzUW2FOFZhHdyCVFIyeIjC1lOYhB5OQrCZbknxWkztVGsXcZUFVU5UhzAHBgu9lElTVFmmHam3jqDAjHXN1oCwcEomdZ2dnX9c3Kmrw9yc4Sd6UkDKXfjIE7+Gxzatwo3eYxhCt29/2DPSy/q78PFHfxUPt03h6MULyCb52zARcbE/bTKZTGnH44bQjt152wJjbymWf993SN33pOnzKCnuJaEc8yYlQKepnFNt9eNvAfrfCCXCKllRzqTc8cJ/0P8vPP9rTHDCZ0DBCtpWXxzNzdfZHXpSLRSq8qg3Ui0YsqSNV2K4uLA0ouQVxy4H+6IkS+Ti/RspclRDPJnb1vVA+ygkIwxtNWiw1SmyD6Fsgb8c4975+Y4IbIQFrBzRhZtuEYYhxXI8DXi6jirwvGWRlQAwhzlyv9qpHvsLH9AQEB6V7jsaiFH61x9CFtdmFWqLfzJWKPuArvPNhxNhxzwIBNuObtEStQ9dmDBvjUEEWYXWtF7lUiO3cUHfRbNZQn8qhh3+i3ARXIlaUsM4DAohMaNnb59S8ZarzTah21gUT/mNaJ8KkXQxqtVO30zTQXctNdoEPENLzV5DAHVJjf+EOVp4sOTwlHkVibdZRfzM1ph4qwL78zc2ILwAQErvciuNlPPLPG/bVCdjffuCDlPKTDfdYcDXyQY9ZKUjMtAhk/0zdVDXkUfukMIiSqtQToYYgwhiy3NA93AZCEQoaOqeuhmXGqrVKtqxlFDYviIyJBir7zYIClO25cDrZSmnHcWvCDmVbaFehgcDUH3zpp4Z/iJVKo58Ak45Du+5tOw3lZEMBtGnEa0SlF20EVSHeJsDILPIkvvhSCmwdMMv41Nb12L6ynfwjfdPYCrfE0tZh6Ur9+OeDTuxenELGjCNsfFzOHPuZ3j78hDmiuEWo/vu38b+paM4/Maf4eCI/67IxQ/iv997P5YMv4hn3noDk8WePpr9zcslfu82YCWAV44AfzuYbC0v+NQCIq54PtcrCtVdJpH/9pvSw0kBKShxRrVQzzGhO6bEIwaw4Gc9PGE9ppHHCnmYvHQ++8pBgplZijbfnhrHys2o85aVp+Ai5RIiNFx0p1X+an5EnQ3t41XlmOqg4FiqFRIQBcHs9qkQk2QPUcmJYnEPi+cFccyzX8UCLuycVVtLwRDaNhkWwC2rCgo3CSATGip1ZjE3B0AWphnV/XDqmvfhsU1rUTd9DD877hVuAm3rfwm/sHsfuhbO4trgSfQOXUZ24Tbs2f15fHR9OzJ5dSDEOE5f7EUWS7C5cx2EohqWr9qBJcji/OUjHuEW3f4tncD6JoGmJoH9nZYXGoqEWkGl9zhZyaUnnvSdKfni/EfpHkZvUShC+WsK4556YJon1b5EhPxvikdtq8eM6fhPFvfC8rYyMJw4sdXcffvenTBTbYxIezAh0retBsHQcYyghLhdmr66E8uGBBDG3WiJxEssHKeBXe2Dlf+l2jer+VSbC7GEhNn8qImGlBhlhSkAFdqcbhUUeVV43uYkAFHyXPn3zUixEh+67X60143g5OEX0D/raY1123HP5vVonDyMHx76AQZm8kKtYRMeuu/T2Lb5EWy8+E2cyWc0dfl9nN22BVtW7sbannMYKDidZAe2rlwGZM/g1AcT8Lf4aPafuACcWCKxCsCrFywu1KYs8v+I4qOqyHvSSiFKT0KiGMk/nSo9XrZSusH3U9XJWdXXVwovvWECc1NEz6xb8GI6Vy4MTsZI8XXnTAJOc8JtHLIPrd4xUxjKKepigYND0e9IqTbvhOrkUQox1AdUDGB7YWF3xnyIPBzH7an2M4BHaFCFE1JjiHZHNUUr+xxGXmcN5h7LIW0LAWf1gpylfcX6p9yrCPVCQuOFc+0/o90Qq3jxb5+3blPjXEJuyHwyFRdvQlzEa698Ga/ldiDg3zchZR1Wbf4Y7mzOYOT8D/DatUl/nCXr0VkHjAy8XRRuACBnenHkg+vYtmENOluBM8P5E9nT6PlgDFvWbsXWFY0YuDKTO966CxsXAjNXjuDsLHzlH9X+yWGB/+tVy0JypPSD8MHK4pdUuS1vsJJQy//r/XX5fAuUEPmGKAPxLayD+VMkqq2GlkT1wxHGBSvieHpSxPgCA3nKzu8T5ZwpnE7HxKZi5R9BcChRbUSxmz2Viu1JoTC2a5S5LPQXRiVumV0S7TpqGrKgwM2GRH2IiYyU5gSdr1eNIB36e2LsofL3HPPF8BQtJflppHHXeCpO2QSUH1Fuhb/Fi4zx9CmrQLxFYvF27N3ZjjmxFGs72yEn3sLLp89iVhVLDQvRBEC23YMHd8z4TtU3NwFYgKaG0jEhJM5fPIrRtfeha/V21F8+jFkhsHLldrRgEj0Xe6ri8yQ2+LxdEn4hKUv9Z1HEeVxtXgFXOOIXXP6cimIOIB6vlNQ0ek8SW/RVJYCLe6iKsXrzVIkR3CoPkfNL3VAqA1svVjTfjy7lQOwy1NNoxUvHsknLXNrxFFlSeg5h6RS8/yZvmHqGCib0pzRB7ShHv+bVHNrmEtaO9M6F4I7tGKGPb5MHfdBwkdL3x8ku309W2rxoo5RVTYo30bQO29euK+5P3fwAw4pHLBcwV04Ll3Zj59JgOlJmg3FG3sOpsXtx17JubGk4jOMzq7Fl1VJg+j2cGsoSmVQTfm9aYTo0J5o8HjQlBinyAl42r+s7KOb8zdAzper10EW4EtdzuUxtAtU2UYVbpNpbqfKM1dTiRDbH1Us2BzFHlKmLjEwCtxJyKxPXlEuelco3Xjp3t1E64Iixz8iPg8BTokQmLC9f+jbXFzBIarapnCLUhTDnW7h6MycIJLJ6xzcbYeWA82dak+JNDv0Yf/XWG5jMdOCeez6PPcsfxf6Vp/GTK5NKwFxZXO75UzzXP6JJzV9aQgzjxMXz2LNtPbZ2tuDkyE50NQFj/UdwaS4QvLoI1UhKDfGIsuLRwDSp33fmF3sFb53nnNYGzwlVSKp5xmWeCzd3HIUb5RK18QJF9RRRfbTWWCoT/ZWpSYdmZTNeKCboRZfOLk/EkLyKM3OeaJER5KZ9pNCj0RGev3EEXFzppxVuhkT1zhtbSwylaRrUNU0gse5P4y10FpKmpmocs4icHDL3azR71R25/KwEmDlqaH/gSbsK3jaNjpBX8fbxQxiWi7B5+5NYX69c+cwEpgAsbGx2Snfs0hFcnMtg1ard2NSxDYsxjDMfDEDWyJRpEc/Dogxs+MP4N4NvmVKdkf+QmlAwYTXNYB6OzSb5Xto9fJR01P/LgHvNFbn/hWdb2fTtF385QaD4+XzbPIpxUNqG7n8irj7V0H3SSupgmAnKOdMV+H4bQ2itCKZF3ALfrxp4tqlUjddMZWoo2/SJnouVjba6QNKjOdl8fQddGjbVKSj/S+L/wHnKKCorTXpk+op9jv1WIDjV91lcvpqnXVDvtVgWid1l0ZF198JXroiQiSc7T/yaFm8AkB15FQf6h4DGXXhgyybUe2/UjX5cygItnfdhc2PpUmWmAx/60O/g8w9+GjsaiJKcOY6T16aA1jtx78pWYPw4TuocdxFpWirx+/slvrxf4r9bmuIITus0bRjvfq4PMvdyUjmhFWiqgAtVcpZhjHE0j4nSc94FXWdi26Hpzjt0WqUo9nUm9Cp9yiKoUAQVsCjQSuEDg2YgDCHW/BGMxpoFUQLCQhVm3kxd0rAI7wvmE8jmBFSNXIiv076FW2r33EnbkEjZRiKZnAOxbfsR06CvbfvaBhvURxZmuKEKCJMgc0nTMQ+NyHTVaKHCzPR/WAGHFonuPtLlGbSg9B+Zboz7UqiaNTlt6kWILD7o/QGOd/wydq55Cvd98P/g1ev5lxOyJ/FG7wDWbN2Gx/Z+ATuGP8BYthFtyzZgRVMGI+ffxtlpBFq3EDM4e+EkJjtuR3OTxNWBw7iRsNdt51pg5+Jcmk+slfi76wklLBHe11Fh8sd00SVArH3znERpv3ge0jBq5BLQmUIGj40oJlTaSphUEiXSNdyrQEDHMFQMV/2iHpCm85VGZ5DRULXyx8zaW0ZSl3mEvKyuIU4IRywugW6bqbXYIAbRJov/qDtOyRTjW1+R8P3x2wP6XGJIKJ+Tco9f3NCMO9oo1idCTDDGk+SmLsNQ2wR92IQw1SX1ATdPzXveAEDMncfB4+9iHEuwc9dDWJlf/SeExPC5r+M7h3+Ovok6tC/fji0rVqNpph9HT/4NnjtxpvhBX5Xs4HGcmwYgL+D0B8NkmDicvgycn5aYnpZ4/XKSKZublgxsUCfVbRm+bUhTm6fpgSOsPSXWj1edlLCj8PgVFqZKqJz3Jgxb/53/vHdLUPG9nkVL12AxiDaMq7/RdDxF4WZyn8QhibQoZ0rhsCFdv4PEbIR/pi7okzFfiOacyWGjOeebqTOdD/sfmny8h6k8qRKiLs+miBzvuWqTNkHCWGsTdCciXIsxqO9+l268uOuuu4rJNDQ0YGbG/0mNWxW54H58ev+DaBv6ezzz9ltakVdNZDIhj0eES4S8LFEYngrbpQ3ddin5/L9el0Jx3zMVQ+wX25iHws94FfaAQmP0hCB6CKnG8aWtHgvpFZK89dL3J5+0LBWA16Fjna9a5v5z5qobrDPVX9Nt0D3iy+B5YpOqES7lYqxRNms7JblZNpTmWVYCAyS9E54OGTx4UO0rrM5J8qhLAHvmRYMMeWqxxXCv7OIZD1kmHZ430csoaM44lEXNT5umRfuabizDLPovHa0J4RaAGvypGqU7RokICfUF09JBwPfbpzJ/vhhVIv/LD8Kz78mSag/qMUk0G9s2TPW9xWOmyQiHPKzNkMo+SgXge4IriQ2hERu+SL5vw5TOSSk0g3HQvx9v0A4pR18Y2wqaFEL5699Vc4xrgSm+JBtgSjg9BFSRTohSLK7juU4YBvqZoJLWnteGiUGMhGxaZFJpmwMYck6jCdjeA8eX5FyfJcggInimWFShaZYGVRZvBFKuwY7OZUC2B6euTqKKurTE8WowAOTY6hNauuO6NFz2VcNM7gddJQ+EE8GDNg1EO+pF62kCcs1qUA2KPPJeecL4hTURCMHj5qdD+9E/6LUyxbNyDRvPWnnHqIcSR0GTNCJvQ0GWB5E+J6HJGxieWZLBdIWX7OgrqIe0Yv4J5Wt4WCSFme5cmEfHURyQhLZlPWk+GkR1UBE9cvF4yFOPXb4xIkV17DmhqzMWt1d46hyLN4LMst3Y1ARMXz6CPurjv7WCUX+UFLwvWH5HQkIEf+A0sB3woOX/Ub71m9v2eu0ASJH/1K+pA6T0W8ixYvcglX31vBGT6LFv2X77XEWkN1uZjyJK1hEijhZw6smwCi002/6rD5eF6aLNJ8wwQR1MC/1N1vvfaJGiu51RxxnjlWvribvozuFmpd11RZS1BuGmOx447RFlZFRFtJks9EpiNZzfSZOmokgBzZOUsaitLzEkYJiodkwuNCJ54ygMbcXCBt+LI7zmbf7gW/PmxdcRK0OvUIIpcQS5nd/zbiuJ+NfM+c/7fx0guCYr14iVzo9o2VQ4bXzlKbkghdwElC8DOl8tCXa8gTIsHPcIO90xT2HTtUUETtjLG0GMQBa9mmmkDss8YS+aXlDZZ+Mk7cP0vDYxd/+D2cMafih5vH1R8InMSZzq+gcyrPSfp4SYJz3dAxitqaTuUHRq1XmQpxLm27cji4BuzrtIBFdmUV4TP+x5m0/oPCs+vaY/568mlDuntK161IoxCC+bBHzTrr595NZkGS9LbTUGzUV+lk4WrFNHSke/BeXds0ohODAVNkuiyt4MSGiWt+VTVBWI1dgc9LCZQpNQni3q3kZ13pjyTCg5bzWh+1Ovn6SA/6ba6M1igr4qKANx9VXU7QqdQkcW70HMbUNotv2eRvtWSnvilCLW4iTcDOrMH9TG8pAGW2MON5WQ7j2lTEMP+M8kUcaKX8QpqtHeUofkTZrF2zxizvdeN8MwDFNZXEfyGnezVS1lLNcUh19v0izeGKaGqatX3F2eKVX1cyy+6VbvVLjnPDkhGzrVSp1MtrOk/F3VSMjzvW1gwnFQgQeyBOeJ6SCaiJHSo93x+qnRUnjp21bD+tP1xa2IS4lhcrB4Y5j5hGEuNrDW0HfSYr0chUcgpj2UpZp+YL4ymWTUM4GZd82CmsAkovcNoDgGGqHm4m2i0csCiJSJCU2K8GsLTqUKUK+pUlOuocsyNedUYccwlaR+amqquNPQ0ADvPsMw1c2iugWWg61hFVtApAnDOB484S6qUpZ5MZIvioyoaYQM7kGNSGWklzgytoEaIq4dlGooAWMZ2FgthYgukgi1ljukntCspDP+nqnfezfNYyVTQdjzxjA1TPHFkZBR0el1BKEJEeqYsRiaLUSfOsRWgugvPAjakaNx9ahO0px3R/MyhBI+4ISzX9mvJJbc+yI+L2HxQAQhJoQmGlF2xTO0f8+TaOmcjUlesRb4KUD2wDGVhcUbw8wHKAFXPKZMl2qmVYvnlX0A2p/e8u0lpLSSSca0Si7J1XPBQdxUVEFx5k+jeLuKM4AhYdUgiapdO7+bLgYtsxymREktZiNsReDTQmpSpM611WOs25gqgMUbw8xz7MZ29YxnEtXiRQR74VZOX5ouL2IymAhKOY2CM3pWE4H+0B4lERRoymcBAsu43ISQHUn43TRCzidabfNSJpMVpSV1J/RR3CG+1FDaZvXGVB4WbwxzSyIC/wIIvKGqnvcdp+ZbnS0IEssvFlsbloZ9+hpDhCr50qPG++eZni4JQhEMo53pS18I2/vewoVcLMmjTcBSzBoNoE8GdJrUHGeYCsDijWHmG5T6oUSIcpyMIohjupN0NqYXYEniSZIkBE3UNPyCrHjhpPjyT+TRq7XyR/NvUYat6EoS2/tFC0vN1Wg9aFTuxFlPcZjjF5KghJ2FjKTmUwMLDBmmsrB4Y5haRgLen6A1o3rUlDMeQZbbJMLr3FGGU8KwV03oV5f5w1i/S1nYzasN+osaNgLNP4eahogj70roXLgsFghdLnG8cfGvMp63j47JXjemWmDxxjDzBWkx3noVVn6bnCRVhZuNpy2pNxYSwNmSwPVJn9iyTVu/AgshAsw/h2r0xGleZTDboLWKOGpTkTwpWHkGaZWn89TqQ5iuLijXYk/XavKWrOCYCsPijWFqHeMiMVEME/jFBattap/wpjmopepYqRVms8M1eabUwldgBUWayScVOF+cDrTz/+m8h8ajziLcb49exIWXjktetKwzC7jA2YKepMwpTM/qXl5gmArC4o25JZGN2/DwnkewWvbh4Ls/Qt909XiNopETJAEdVzwQtniJ3qai+nxy2nOECboMUp//ixQoQp7CN68W7jPKXXyYQAufkiykTgsXC8NtIxiS8l97ISnndW12meX/6uLHmHKl1rsVtljEMVVEptIGMEwlaFx1H+5o78SKFftwx6qmSpuTHJEGFXXilD5X2hOGkEEV6I8jfJvqKe0x2/8jYptUaDYCec9VMKVAXFE6qj9ni1pwoUbqk3CLFQOh/A0hjmDyvrxgkU7QE8dqjakuKu55k3I3Pv70J9CFHrzwvWdxErf79nuqaB1NrSDlRjzx5OewE+/gO3//dzh/C5ShzCzHtu1P4d7Va7GkcQHqMrlrnuz/Gv7L4VOB8NNDJ9A/uQadGMCZwSkkNSxVrD6r7i3jVCrCTgZCkPIusEkNxhauOXfTrJKQxL46hWbKlP6thJK3TCXoPSv89d8Yn22KobTvTDe9asKpMlilokuZPquxNnCYqjOGK7UtBJtwNm+QSiII/7oCUwVUXLwBWczK3N85cp9hwlm+6VP48MZVmB47hZ7LY8XxcnrwOhlejL2B5158o7CXoCVVXp+dxnE1IB0xanKhAsgyDB1WBMSXCAgvGw+V7XHiJQOvLlHUmk6kpUMS9dt1KjKq6CRIWysVBVowI5ZpTLVSFeJtbi7/l9xnGDNSZrBy6UoIfIB33vga3pyopKexhuqzV8jZro0rILx/NFNwUvnrj0rGC3q71DC014sOG+Y30pyONfVsE7lQavQ7izoT0pR3ADTCnipTwgobR5ur8VEuVhtHnxhLNqYWqQLxNlsc3GbJ/RJStuDuB34f+5b04acvvYwFO57Ebe0rsDgzg5HrJ/HWsR/i2OiMEqcOyzofwd7Nu7CmuRWNmMbY6Fn09L6EQ5euYU6ZxpKZNmzd+hHcu3YDljZITIydxZET38f1df8ET3Vex5s/+484OJaLI9s+jH+8by8aBp4NTM117f6D/5+9Nw+O67rvPT+3970b6EZjIUgAJAiC4E6LIiVqoyVZtuXMG8lOykucV6/eZKrGfm/y3lR4Y1w8AAAgAElEQVReUpWpepVyzT+ZStVzzSSpmcmrJFVK7HL85OUpdhLHEk2RWklZlLiDAIgdIIAG0PveZ/7oBtA7+jYAYjsfSug+t88993eWe8/3/s655/KlvUk+ee+/cHlBqd8eXStHey5wvLkVp8mKjjiRqI+piSu8O3gHfyZni+4MX/7cF9hTsP9pXvnS6YL0Jm79KT8aDq9aK5UQQour5RmeOHCEPXYnRmKEorOMj13mg5Ehwpki+4Wepr0XONvRS5vNgYE4odAYQw8u8t7ENKk8e4XtAt985mkcU6/z2kQrz/Ueo81sJBmfY3L8IpcHBwiXvBcSQJMbJl3yclWyPTuc3GcsTKNamQhhp+vQ5zm3dz+NeohGRrl75x+Ya/9feal1ng8v/QUfhvPTq70952Pz6viDkxpaEFy+nuC1GRXzgKpGraCgqu1Y/yhb+XHJisOrlRJY7QAbRLG9dSqosrvXpLyqR6pfUqio0LXU/bogCj7q2bXq9jqHU1c2ieLnMiSSTWFLiLe0AMjkPBPF4XLo6Dr6FTyGSSZmFjDaO9jnPsVnH9cQ+tVPGE3nBI1QcO//Bl853Ik+McvEzG3C2Ghy9/LY6QO03vkrfjo0syyYhNDQ1vsNPt/ZiEg8ZOzhDDFtA0dOvsJcaO05VW+Pk2Of+SbPuQ3EQsMMTfhJo8fm6ubAwd+k2fI6P7h+i6iigPAxNnGTrJlWWlq7cDDP+NQkkTwbFkLJMpbVbn9j5zf4ypFOjOkAD+fvspjU43J3caTvd+hy/5S/v/oxwbzy9HZ/ky8fakeXnGd87hbhjJ1mz0FOnOykxfzXvD4wXSJYMZ7khRNN6BZGGAraaG3qpLvn63h0f8P37oySURSEcNN7+Ena9dldnDYAF92H/gfceQ0n4Xufy5OzuVCA8fGPIbePxt5Nb4Ojan49PV/j5e4WlNQ8Ew8nCOsa6T31Cr5Apb3qac9wqE1Dh1EBFJ5q0/LaTK1+urynTCvptMKoFTxuxZFqOmwdbKoyeAQUCrC6vWW1CBFVCagUcGSji2VPZ6kkrWXKWEVzSuxSU0qiYE+VB1R7mApz3KR6k2wuW0C85YaVlBTpsuFytGAL/B1/e3eYpKIghIH9J77Ny+3HObXnF4yORrPRdH2c6+nEEL3OG1feYCSZPeEUfTfPP/01enuep3vs+/QvuUT0xznT0QjxT/nZpR8znMpeGnSOZ3nlXOfas6ranh563Cbwv8XfX7lMYEkUabycOfNb9LkO0Ka7xWAalPQQVz8Zyv4uunihqQsHI1y7vo4PLGh6ePxQJ8b0KO+88xofh7I1JBQvjz/5bznrfZ7PeD7hV77chU1/hLPd7egSd/nF2z+kP5HLr+EoX3jmVfZ3X6B7JC+/S4dxWph67895P5AVmhrrk7z61Au0dJ2n+94o/QLAQXv7qSIvmo3W9tO05m2JcXdZvCmKj3t33+Be7jdL57+uKt7Q9vBYVwtK6gGXLv8dN6JZQaVveIHfPNtRYad62jPcHktzu0FDK4LLYyo7hhrFWp7MKx9RUPC2hmzHXbq96nHLTfBeYqvrtmJRWymOyiRrTy8nSiqNSqoUbpWGA2uf81eYWtmiKWtT3vGr2rwUr2huXK35zLXL0vii3Ectya0xgkTy6Nh08aYo41x66ztcygZQKAyXZ4HB8axwy0ZLMDQ1QKL9FC6rBxjLRmvopE0L/smry0IJQCQH+GRygd797exxQf9c7gerl0YFErO3l4UbQNL/AfcCz9LcuMbMqrVHo0UDZBIhonnJKJkZrn3wZ1zLhtZolArse2nWQWbqGp8EU8v1o4gZbtz/AM9eDzGNEYhl47s6aNFCdOKjZeEGIBI3uTn9Evv3FeV3icANrvsTy+mnQx9wy/dZWrxuGq1ACBTlAW/+8ju8CQih49jZP+I5zwRX3vqvXI+tU5lYWnHrID31a25G0sv2JObf47b/SZ5qKN2lvvYMUV+aP7lYTd6twpLrTSgIRSxP16/miCsr54ocIcuiTbCcbnEKULq90uHKpbGlWHMHLQpFSBVxUSjSKguuyiKodM7c8uGq5EMUVDaV6yM/DaVWcSVqjFcYpbZir6RqV4lT8GsFRVeTIVK9SbYOmy7e6iNMJF60KbbATNiHPp13IdKZMQLCfY7njxW6dzR2I2DCmF8CBhNGIJ6KFcRVlBjR+Bo61nrtifcz7H+elqaX+Oq5biYC8wQi8yyGp5mcnyKSecSdoN6AAYgmwiVDnbGZt/jHmaL4umx5LsZLxxhD8QjgLsxvjkwsSCz/9UxKmmg8DujR69eaCRUYzJiBWCKCKLAnTDi2Du1hHciXXxVF2PLnSkAIZUVLVhVVeamWi7cs8tQJOKgkGooUQ6VEyrLZorCMcKlJuFUSXKLCqhSVBV1N8qL42FXrQ13C1YVjGYFah7ur8kodokpotV2KKkzqNMkWZ5uKt1KU4BV+culK0cbsh6XhOH1lvCRCpB/t9V6lPYoyz0dXvw+95zno6eJQYx+63PplIjnD3Rs/4M1JX4Gw2FLUYtYWNR3Iec62G4VybskHtySthFhxAGa/54+pFu6Vl1xB8mWFWmX3XnkTWREN5X5bdvflBSt2+krpRqV0j4JUBKuIFdXU0umXEzeVBE954SYQ6y8slk0XsDw8rq5sKnq0SmOoE4Kq9ilNo2xwNddkfuRy0aSwk2wBdox4K0vuJJu+811+OOSvEGkNF/BV55SLwjh12CMSQ1z7dIhrgKKYsFobaXQc4nTf0/Qef4mx2e9xr9pjjJtJLRe5rXwhFBnSgEYpfBGJEBq02q0j68p73yqrqVIBR+EeRQJNCIGSf4Mgsl2rUvxkdJHYKqSMLdXqvkK/W0tcyAnDkiIo7JDzxWNlIVfJEyhKv63mcao0xLeqcMvzWNUtYmp/WEEA1Dy8reLpSxW2q8+rKPu1aoIVDlKL/24rX7Yku4Od/XqsVJQ4YDbYa4ufiBIDDDpTwWYhTJiN2tL46SRJwGiyoc272gqhw2o2AQkS+aNrKu0RGjM2sxOLTpNLN0YoNMno5EXeGfOBtp02Z21ZWxeSCRKA2WBFU9QTmbwv8Btnvs755ryyS8WIAyZj6UMBNqMFiBOv/+HXjSe0SAgw271Y8vOraaPZvkVOnZqHnYo9NqL0uyj0oOSLMZH7V5CCKNomVv4XJf8vxX1E3V6+l6X4/3L25v0rDbG8tfRbmXSLEheUE265WCVeuArCbdVjFH5f/iey6Yky/6qSt09lNVTLMGlNRyvaq7itVk+/QARX0sOlRyhMpqZjrXzfOrdukt3KFumBNoiFYSZT4Gh/goOGlawKTTNnn/h9fveFr3HEkHdShmdYEGBo6qNTt7Jd5zhLj7OMmy08ynQCcJ/mlF2XF/88RxsVSIwzkb98mFp7bOd59cLv8TunTmAuEIcWPA4bK2uIFRMhlgK0Vizr6VsNjvEwBZqmxziRl1+hNHP84Bk6mlrQJ/MmIy6OMJ0Gc8tn6DHkzRkzHOVoixVSY0yUfwHC1iA+yFgoAw3n+VxPDw16PXpTK4ePvkCXdn2X3DU3avnDCwa+e0HHq41r7BoqCYWSH0Xp9qKfRVHHWNINCxXd85KQKyOLygqPGuOUxq2D4o6//KFXhFjFw+VZI8qJrrw8iKK9ysQtFX6F++cfo+B4VYRqfl1WFdT5ea5Q2qsVtyj5UgNrrMKyGrdsoqLCp0Sy9dnZw6ap27x//wx7Dx/mpWe/xZG5CUIZE42eTrxGDf7Rawzmv9YyeYNrI0+zr/M4Lz/XzJhvhpjGSWtDhrnFJLgLk1fEIFf7B+k6eoBzT36bDt84QRy0evZh10R4cPdtxvMXlVVrT/Am/YHHeazpi3z1qV7GAyEy6DE7O+lwGBHhj7hTdvR1lgczC5zqPMgz53+b/f5obvQ2w9SDH3MjUKc4yPTz4b1h9h3p5Pz5f0/3/CiLCQMudxctZgORmX/kI19mZRwueYsPBs7QfqiXzz37LfrmJgljp9nTgUufYOruWwykWNPItRqE/SQXOvey5EPV2LOPDzvbXuR5+5KLdIH+25cZSysoyizXbr7PgTNPsrfn6/x2TzZGKniFTxf2cKp5/Wzr26elz6YAWl7al+FH87V2JILl4dLs1+Kf8oZGlyLkz2oTZJ9QLZ0pt5JGXsKC3JAqBdsgf3s5yjzkUGPuakUsH6a2vcoumbHarmV/F4XfKsQpL2TKz4ODYtFWKe4aWK63wkRL5rzVfLzS24Pq+6rzyBUnuNyuqx2wuK3VdMC8SNWnTkokm4bW6/X+8VLAYDCQSCQ2055VMNK27wn2mhYZHvyEmVWetlQUiCzc5EFIi9XupaWhHa/VTCY2Rv/Az/hl/2B2gdvl+ILA3AAL2gY8jhaaHW5M+Lh386eMWs5y0JFgcuRDxhMr+8QWbzMc0mK1eWl2teO1GIkH73Pj5utcmlwoekpRpT2EmJgeJa5z4Xa20dKwl2aHCxMhpqfe5c3rl5kuM99NUQSB+WFChiZanO20NLTS5GzGbfeQmH2bwXB9aklRILp4k8GggtXiwetsp9lmJZOYZmjgDf7p7h1CFJZneP4mIxE9VntzLr8mUuEH3Ln7Om+OzJDOnzdl6OJERwfG0B2uTs8WHNvVfJ4eZ4aH4+8zWrIUiIbm9qfptAQZffBrplMV8tfwJC/3nqDZ1UaTsxWP2Zg9rLmFJmdrdpvDwNzoShqZ6BC3J8cIJUIEg+OMTrzDpVsfgvdZDtijTIxcZSK5dvUZFHDco2BOC64MpPikxjrS6bQrS7bAyndFAZaeKF15snRlntryzPSsUFv+vvJb6feVGPlfleJAsYgsovqEeFEQqzL5vWed5V9mt/Kz2mr8vYKIqCTalv/mRSiNWy5epQMXqopymqP4Wwkl1VtbPayiaavHKxu/cuzKaZQXbtU2FvjcVAqyTEYqOMnmoRw5cmS5BdpsNkKhdXiVwA6k+9Qf8flWf8HrsbYzQljo6n6eA5ZVIkbu8u5Af4Go3O0IoaHv8f+d55se8v7F/3dT36VqMhqqiDdWnpjN+yyJu/S3jJgrH175q76zryHKarqssipRdZiysYp3WnFWrmJLZdFUMU6eYqhdtFUQQeW8ruWomN1VlGz5GDUL2NXjFv5Qg+5aLRFE2cd1xUoJiqXyFcufy0df9tgtxSvdlkxtjeWCJLuTnT1suo5sx0UjqmPC23aKPkf1fIlAgKsD/QWLBO96DIfpdCqQ9jFfvN7gppA3dFoy9FmkPso8arq8X+GKvHm9da7jWnrDR+7vymhbbnsNQ5bF+5TPS17sAjFTYbxK5MWvkFLl07douLCc+aIkauXjLG+sRbgUe9oqeesqCbxaDKkSRyk9olL8Yy2jp1UMq6LlVt9n9QOqRBSUZGGpVqv4HHK4VLKFkOJtl6Io83x4+Tt8WFvkjTZnyyKEmc7uF+he8lBqLHg83TQZ0vgG3mU4zSObs1fWvuXD50u3MhEK9FjerLYSAQdCUZa/r/zGiiApEHHZb1W9bksRy4iF1XNXLVw9fkk5VEQpsq1e8r0zKn4XZUqlnGgrjVDNkhJKaid/Pu6Sns9LoVDMlsYtFpzVrapYIqtEr55igbOx8uq95Jd9cbK15qCA3XtJlGwRpHiTSKpioKnlFH2unGBJRQhGR7l5/5e8OzJZ8qaJrU1hd1dN+C3rrTxxR8E2StOq2nlS1C8qRT1vSYQ6UcoIkdUQLC/5Vk911iIERDl7RJntlQTeypb6/U6lW5SCHwuHwovtKoxbKc2iI9YcN3+3GiV+7oakyisXllNYiVLO61bGxnwvW6XvEskmIue8SSTbGKPRkKdXlNx/eZ/Lm5VlwVWou/Jek7WUyirhgpBSsmVLsKolG2K3KBssK+hKfqvulas+4lisPCupC6WmrK5Ut5pyKXPMql7ICvuVFbnldlldQYnyBZr9my+GC5ZhylebK8PahduzaSeTcs6bZPOQnjeJZDtTtn9d8qTlr5K/5Fcr3FoYXhIKReHl96CW8cXkbVLKve6qHupNJk9k1iYAVgLr5UAtt8Bu8XHL+ZXK7ldOyFSdSydWcQzleRihoLzKpinqKJeK4quCVeX1bi0/lkmqWvw8EVxB/JVsqVSY0vsm2QJI8SaR7BSqCrnyA6bZoMjNc1v5eWk61PIcOQGFT6cupZOfzCZ73oo8UWqca6LM/K9yVPRtrTJkXEk0FA/nLX0tEXg1ebFU/p4LKIgyeVaK7MttLZ4bWFoQ1Y9fk+ipntmqAq8mVh00Lf1VCjbJFkOKN4lkB5Av0Ur/LsXJ96llf1kRbCIn2PIfVsj3wlE4hJc3ZlpJzK1jxgo/i35a7TmJbKBCpGWRWpRwFXOqUW4YtGy8WoVcwfYyFtRa5GWzn+dfLfLIVfJd1ia+ivYp+FJbAtWPU5sXr6yPsyThSkJuFU/c1pkhINmlSPEmkWxrirxoZT1tZaIKQCmScMvblp5Ezf4R5YRaXke8oosq9WhlrSmNUmmfpQ63/ChkvpospMCZVr3DLxaklSjveVtd+C1LhHLaq9IwXrnt1TVhZYp3qiLQssfIny+pPvm8hGpGtcgrKRpV0ppC+2r050kPnGSLIMWbRLJDqCSRBCtLeSx1cMrSfDWlyAuXJ+oKPHNlPRT5Ii+7X5lIVNlYlfzOeLnPLJdMzoiyYrXa0YtF6WqioXjIsOxxavMKlXv5emXvUGWvXN0UCbQlSryoS2aupuDUa63cxtV3LHC6VvNCrpZKQZGX+1ZmixRrki2KFG8SyTYmHktutgkSiUQiecRoNtsAiUQikUgkEkntSPEmkUgkEolEso2Q4k0ikUgkEolkGyHnvEkkG8hMLLPZJkgkEkldeE3Sv7NVkTUjkUgkEolEso2Q4k0ikUgkEolkGyHFm0QikUgkEsk2Qs55k0i2I0YbDSe9mAizeH2aaFy+r0cikUh2C9LzJpFsQ5RmN06PBaOnCbtXu9nmSCQSieQRsumeNyGO8Rsvv0In/fziZ9/nHscLwv2K9CioRYguXnjxmxzmY37yL/+d8XUuw41OfyPZcu1NOPC+vBczQeZ+NkIYZ2G4gj3CFyAStWAiTGQ+zW5/U7a2s5O9R2wF24RIEHj3HguL61Q2tibanvGinx5j5NeB9UkzxyOxX7JubOn6EhbcL3ZhY5GH/zJOrNo1bZXrj2TrsuniDdKkRPYzUzYskawnW629CTJLL4AvG65AeIGZtxZyAdm5i2CA4OjKq8K0DU7Mtio7bDG2u/27jZ1TX3VefySbzpYQb5lM7rNsWCJZT7ZaexNkDywqhCW1kPHN4/OthM3H7duqM93u9u82dk59yevPdmULiLfUcueZKhteQQg7jz31H3nCOcyvLl7C1PsiRz1NWDVJAov3+Oj2P3E7mCzaR0tj63OcO9DHHpsDAwlCwQf0D13kw6k5MkUuZaFp4ODBz/N4ewcuvSAaesDNuz9nce/v8VLrItfe/jPeD2X3EQ2f4988cQ792Pf5yxv3C9LpPPaf+NLeJJ+891+4vKDUb4+ulaM9Fzje3IrTZEVHnEjUx9TEFd4dvIM/k7NFd4Yvf+4L7CnY/zSvfOl0QXoTt/6UHw2HV62VYtSmL4SNE0/8B55pDHD9nf+bK/7Ci4GwXeCbzzyNc/4X/PV77xFRlOVtjqnX+ZsxD8/1nqbdZkGTnGd84hJv998ikCkqH5Xlqaa95WPz6viDkxpaEFy+nuC1mfXydmUQuYulKBvOIzccYjcWHjt66y4Ph4usF3qcT/fgyswyO2elscsEi3PMXvNjOLkPl1tHZsHH3MczxFN56Wl0mDo8OPbYMVj0aESKdCRGdHSWxdFIaXkKHeZDrbjabRiMkA6FCd2dJLG3h6aWBIuX7uMP5+0jFPRtTbi6nJjsejRkSAXChIcf4p+MIx71sLXa/AIik0Hr8dB4qBGTXYeSTBCdeMhCf4BUprh8tnF+hQ7n+UO4XCF8F2fRHm7G7jah1QhS/iD+21OEAkW3PGrzW0f5q0JnxtbThL3ZjN6kQyFDOhonPjHDwmDw0deX2vSFgr61CWenE7NTj4Y0qXCM6MQs/pEw6SX7dQ00f64Nc8H+DbR8qaEgudJrhYrrj2RLsSXEW1oAZHKej+JwOXR0Hf0KHsMkEzMLGO0d7HOf4rOPawj96ieMpnOCRii493+DrxzuRJ+YZWLmNmFsNLl7eez0AVrv/BU/HZpZvkAIoaGt9xt8vrMRkXjI2MMZYtoGjpx8hbnQ2nOq3h4nxz7zTZ5zG4iFhhma8JNGj83VzYGDv0mz5XV+cP0WUUUB4WNs4iZZM620tHbhYJ7xqUkieTYshJJlLKvFeHXpK0qIu+MDnG/s4WB7J+8sDhVcmJr29OEizejkp0SKL1jG47x40othcYQHYQtN7k4693+ZRiXM394ezisfdeWZpZ72BofaNHQYFUDhqTYtr82sn59OZAAl7963KJxve2x8EfTZkGK1YnMbqidudGJ3x4gtprC4vbgftyAyMWJhK5YmL57uEBN3o7kD67CePICnRYeIRIjORMgoWvQNVuzHbJisw0zdCa/UoxDoe/bh7TZDKkHsYZS0Ro/tVDuJclPChIJ+fwcth61oEjFiswHSaDE02nGesmE0PWBmKProBI3a/C7tZmzEc8qEshAhGtVicFux7N+HQfOAyVv55bMz8gsaLEf2YjBGic2E0NgsmBtduB+D9KVxouk681u3PbXmV4/tMx243RoygTCR+RQCBa3DhuVgB0brKJMfB1auDxtdX6rLR6Dv7KDliA1NJkncFySVUtA1WHH07cfqHmfy6gJpRQGRIDbpJw2AFmOLDR0JYtPR3LYsyVDpdav2649kK7EFxFtu2EpJ5RpZcbgcLdgCf8ff3h0mqSgIYWD/iW/zcvtxTu35BaOjuc5I18e5nk4M0eu8ceUNRpLZ5qjou3n+6a/R2/M83WPfp3/pRkR/nDMdjRD/lJ9d+jHDOY+EzvEsr5zrXHtWVdvTQ4/bBP63+PsrlwksiRaNlzNnfos+1wHadLcYTIOSHuLqJ0PZ30UXLzR14WCEa9fX54GCetKPT37M4OEeelpP0HF7iOHc1UCIZg61uiF9n3uTYYrnbGkcFqbe/ws+DGSFoND38oVnf4vuzqfouT/M3aXyUVueQH3tDW6PpbndoKEVweWx9bys5YYplPTynJPCcB5KgvDdCZb8ptrOztXFmyFG8NIokbSZhmcP4NBHmbz0kKTWQdOL+7C4zGhFJNsB6E0Y9DGi4wHmb8yTErl60VpofLoLe6cHy/0w4aWC0tpx7jdDKsT85VGC0azFGlczLU9YS23R2XD1WNFEF5m5Mk40mUtfb8X9VCe2Hi+WsRHC1Vyg64na/ObQuLTE3x9g0Z/rCPU2PM90YO3wYOkPr9i/Q/ILZnTBYSavhrNCR2gwnzyId48T+55poqPp+vJbtz215teG1a2FxWmm3pkjtXSd0phwntmLzWHDpAsQWUp/o+tLbfpaO85DNjTpCAvvDBMIiRX7z3Xh8jbj9Cww7wPSYfzXc1cGYcH9og0bEfwfr/LAgprrj2RLseniTVHGufTWd7iUDaBQGC7PAoPjWeGWjZZgaGqARPspXFYPMJaN1tBJmxb8k1eXO3YAkRzgk8kFeve3s8cF/XO5H6xeGhVIzN5eFm4ASf8H3As8S3PjGjOr1h6NFg2QSYSI5iWjZGa49sGfcS0bWqNRG0i6n7tTQXr2HeJQs4Hh6ZzXz3mMAxZITn3KQJLSLARucN2fWK5/JXmX/tk43Xs8eKyAPxdPbXlSb3uDqC/Nn1ystxepghJl/uIt5pePXxxeI8kU6TRAklQCICdS02nSSUCnXSn+VIiFD5ZczHnHTkeIBQR2ix6dCZbVo9mMQQtieoFQJLNsb2bBR3DBQ2Px+dJgw6SF1OT8SscFkAwTnEpg22/G6ILwHI8Gtfldwu8nsJheqZ9kiMhcBuseEwYbhBdz8XZKfokTHg+veKiUDNGJEJk9LvQ2Iyz53tXmt257akSryaaaKJrPmonh/+B+7jKSd9yNri+16dstGHXA9BzB4Mr5RSZGcNCHod1IRqOFtczW3ejrj2TD2HTxVh9hIvGiTbEFZsI+9Om8BqczYwSE+xzPHyu8XdLYjYApe3IsYTBhBOKpWEFcRYkRja9Dx63Wnng/w/7naWl6ia+e62YiME8gMs9ieJrJ+SkixfM1thiKIhgZvUFg35N07e1DP3WdpKLQ0nYYB1HuTtzJenyKyMTDJIq2R5NxwIQp39Gktjwlq6JxNuDqbcTqNKHRgZJXD0IohddzoxYtkEmkCoeSlBTpRJn7dr0ODSAa3biPFf6u2DSAFo1+PXOzOqryu0QiVTIXK51KA1o0+e1tp+SXFOni620iTiIUR8k/7erIb3321EgsQNTfjNHbSus5O9FgnHQ4QTIcIz4fXZkvtgb7VaE2fV325j2dSJcM1WYezjD7cA22SLY9O6ZrU4JX+MmlK0Ubsx+WhuP0NZTuI0T60TquVNqjKPN8dPX70Hueg54uDjX2odPkhk6TM9y98QPenPQ9+knPavB/zL3gE5zxHKfHcJ2biXZ62xog8TF3Z9e4PtlWq9/tjrmBprNtmHQZUr4AkcjKHb220Ym5eCS0SrurVuy6Rhf2Ml5sITKPtrrU5rdOdmR+A3M8fLu8C6rm/G50+StJAtdGoNeDtdGCrdGBZvn6GSV0YxTfZKKkHW90fW2Z9iDZ1uwY8VaW3M3N9J3v8sMhf4VIazhdVvVWi8I4ddgjEkNc+3SIa4CimLBaG2l0HOJ039P0Hn+Jsdnvce9RzZmpA0XxcWt8jMcOd9Db7uC2/yj7TRAc/pSJ3MTYutno+t1lGPa5MekEyYEHTN0rnJhtPV2mM81kn0hTikWcUKq+uyV25x7TQ5UenHl09aU6v3Ui85vPyjEfhT0iHsb/STg7RKpo0FqN6NsjmvQAACAASURBVJ02HL1ebMdbic2WzmHb6PraKu1Bsr3Z2a/HSkWJA2aDvbb4iSgxwKAzFWwWwoTZWOYVROkkScBosqEVeXOuhA6r2QQkSOSPtqq0R2jM2MxOLDpNLt0YodAko5MXeWfMB9p22py1ZW0zCY5dZzyjobXtJAdbDmFlnvvjwxU9hhqjFYMoHFYw641AjFgib6Pa+pVURWfSA2lic0VP1AkNGkOZuookSAEaq7Gg/aMxYbSXiZ9MkQG0hq1xz6g6v0sYdGiK2qdWpwXSZPKFwE7Jb62ozO+G26PVojXr0WqXnpTKkA5FiU3MsjgeB60FY/71c6PrS236qXQuvhalqL1pmr14H9tHQ/PO7sIlldnZNb8wzGQKHO1PcNCwklWhaebsE7/P777wNY4Y8k6K8AwLAgxNfXTqVrbrHGfpcZZxs4VHmU4A7tOcsuvy4p/naKMCiXEm8ifbqrXHdp5XL/wev3PqBOYCcWjB47CxskZZMRFiKUBrxbIh1yGV6SdvcfthHJyneaLVCaFb3KnkKAOE4ygnHSuTP4S+l54mI4g55tZSnmvA3KjlDy8Y+O4FHa827sy742QkAegweS0rnYUQaDxN2JxlyjEWIhYU0OjF3WNDr9egGE1Yj7ZgKfe61YUQsRTo9niw5K9VpzXhOtfL3hf3YTOuT32lE9k5aDpz5fe+qs7vEk4XdmfepVNvw+LRgIiRyF9SaA35rcV+tdSd31pRmd8Nt8fmoeVCD3tONxSKbaHFYNcBmcKRkY2uL7XpByPEU4DHg92e1940JuzdbsxeM0qy3FzsDJncw0jarXHfINkAdnbVpm7z/v0z7D18mJee/RZH5iYIZUw0ejrxGjX4R68xGGfFU528wbWRp9nXeZyXn2tmzDdDTOOktSHD3GIS3IXJK2KQq/2DdB09wLknv02Hb5wgDlo9+7BrIjy4+zbjQqnfnuBN+gOP81jTF/nqU72MB0Jk0GN2dtLhMCLCH1UQQbM8mFngVOdBnjn/2+z3R3PXqAxTD37MjcBaxYe69BUlyeDYbWKtp7AbBTPDn7BQZb5UcjFC+9lvs29hDH8mu85bo0EQeHCF/vynU9WW5xro26elz6YAWl7al+FH85vwIL3DRWOHdTk7ijX79Ia+pQW3fcmeOOHbs1lxrZLkqI9I5x4s+7vY0xAiFsmgmE2YnEliiwJDUftHSeC/5cNyxoOlpwtLT3Zzxj9DcMGMo7kofirE4v0I5sMOmp45QMwXI5XRoG+0YjQppMZ8RGKsS30lp/2kupqwHO2iyRshk1nq/CIEP50noSjq87uEP4357EHM8xFSGS0GjxW9HlLDc0QK2mf9+a3FftVlUm9+a0VlfjfcnoCfcMCNs6mNtqccxIJpBAoauxWLUwuhBUL518+Nri+16aeD+O+FMB+x0fDUQSxzEVIpDboGKyaLlvTMFH5fOXviRGYTODrtND7ZgSWYWV72I/5gjKB/7SeYEAqvPqvnXzng17+O839N7swb2q2M1uv1/vFSwGAwkEgkqsXfZIy07XuCvaZFhgc/YWaVpy0VBSILN3kQ0mK1e2lpaMdrNZOJjdE/8DN+2T+YXeB2Ob4gMDfAgrYBj6OFZocbEz7u3fwpo5azHHQkmBz5kPHEyj6xxdsMh7RYbV6aXe14LUbiwfvcuPk6lyYXCoYDVNtDiInpUeI6F25nGy0Ne2l2uDARYnrqXd68fpnpMp20oggC88OEDE20ONtpaWilydmM2+4hMfs2g+G1nWj1pJ8Jp2nsPE6TZoxff/ouD1NlbDB0caKjA+PCm/xoIEJ76yE6GpowZeYZHflH/rn/PjHqL8+1EBRw3KNgTguuDKT4pMYyDKfWUeQ1ePD2ujC6zBidZgw595bGYsLozG1zKCRGFkiktJg63Ji0UUIPgqTRYNzrwUyIwHgUgQHz/gaM6TDB0dwyEOkYsYdxFKsRvd2M0WFAE48QuDFJ3ObGas8QH5knltf+iYYJTUZIJVKkghGiE7PM356HZi8WW5rYyDzxpWURFMgs+ImEFbQ2E8ZGSzYP0QjhgUl8/eG1r6i/bFeEWFhB5zBjctswLZWZA+L3/dllhtTm12DF3mFF659meiCNudmO2W1Ck0oQHZ1k7l6Iginna8lvLfarRXX9ajDt82AyJYgOLpJY7el2tfmtp72pIkX8YZi0Xo/BbsHYaMHoMKAVKWLTc/g+nSORf/3c6PpSm76ikFkMEA0JNCYTRpcFo1UH8SiRoQlm7wRIl1OSCqTnI6SNRoxOS/Z64TCjtxvIzM0SCdVenlZdhbgaDS/0aWjTCC7fTnO/3PVcsqEoR44cWe5dbDYbodA6vEpgB9J96o/4fKu/4PVY2xkhLHR1P88ByyoRI3d5d6B/zSJIWJ7h6889R+PcP/JXH3xYNr2V12P9N/7i49trOt5WYSa2C9/QKwS2M0dxe6MsXhzEH62j7Qgt5u4WLKu2z0UWBkLrJ/q2C7utfHZbfrcIXlP5mVXCruX/fFZLcyzD//EvSQZkeT9ydvaw6Tqi7LingEx4207R56ieLxEIcHWgv2CR4Hrw7j2GmxTDkzdqEII7rax3GQYnZhfZB3qK1werGQ2GVhd25yrt05/APxBayzKl25TdVj67Lb9bG71LoQlILGQY2mxjdilSvO1SFGWeDy9/hw9ri7ymYwmxl749bkjf5d5UFCnOdhBCi/lAC5alZR20WgyNNgwGQXJgjmi9S/kpSfxXblHluZa8uLuwPe228tlt+d3idNgUtIrCwLyQXs5NQoo3yYaj9ZzkoAniE58wmEJqtx1FziPiyi1+mk6SCocJ3p9hcTSytReQlkgkqhFC0OlUECLDoG+ti3VK6kXOeZNINpBdOedNIpHsCCrNeZNsPrJmJBKJRCKRSLYRcthUItlA5J2rRCKRSNYb2bNIJBKJRCKRbCOkeJNIJBKJRCLZRkjxJpFIJBKJRLKNkOJNIpFIJBKJZBshxZtEIpFIJBLJNkKKN4lEIpFIJJJthBRvEolEIpFIJNsIKd4kEolEIpFIthFSvEkkEolEIpFsI6R4k0gkEolEItlGyNdjSSSSbYMQBjx9T3BoXzMOR5D+N37OUEzZbLMkEonkkSLFm0SyBRCGHp499RxtYpj3r/8zwwkpSIoRug6e+rf/nue6HWgVBSEe4P/nnzMU22zLJBKJ5NEixZtEsgUwtJzlhKcVaOVEy68YHk1stklbDstj/yPPdTuID77Bf/v7XzLqi5BRpMiVSCS7j02f8ybEMb70xf/Mv/viV+kRoiQsUY8QXTz/wn/m373wG7TLMnzk1FP+ifm7jMbiJGMDDPriG2xhZbby+ehocKNBMPz+PzA8H5XCTSKR7Fq2gOctTUpkPzNlwxLJzkcJXeWnb15dCm2iJVv3fIzGIiiKBoNRD0jPpEQi2b1suucN0mQyQGalsygMSySSR8fWPR9DwRAZIbDYXZtsiUQikWwuW8Dzlsp2DqRJlQ2vIISdx576jzzhHOZXFy9h6n2Ro54mrJokgcV7fHT7n7gdTBbto6Wx9TnOHehjj82BgQSh4AP6hy7y4dRcydCL0DRw8ODneby9A5deEA094Obdn7O49/d4qXWRa2//Ge+HsvuIhs/xb544h37s+/zljfsF6XQe+098aW+ST977L1xeUOq3R9fK0Z4LHG9uxWmyoiNOJOpjauIK7w7ewZ/J2aI7w5c/9wX2FOx/mle+dLogvYlbf8qPhsN12VNP+atlN5W/EF288OI36TMqFeOUlI/Q07T3Amc7emmzOTAQJxQaY+jBRd6bmCaVX1+2C3zzmadxTL3OaxOtPNd7jDazkWR8jsnxi1weHCAsir18tZ+P+di8Ov7gpIYWBJevJ3htZv29h+lAgBhgtTuBmXVPXyKRSLYLW0K8pQVAJndnXxwuh46uo1/BY5hkYmYBo72Dfe5TfPZxDaFf/YTRdK5DFQru/d/gK4c70SdmmZi5TRgbTe5eHjt9gNY7f8VPh2aWO2whNLT1foPPdzYiEg8ZezhDTNvAkZOvMBdae07V2+Pk2Ge+yXNuA7HQMEMTftLosbm6OXDwN2m2vM4Prt8iqiggfIxN3CRrppWW1i4czDM+NUkkz4aFULJue9SWv/ry2V3lDwHGxz8GfTaksXfT2+CoWj7e7m/y5UPt6JLzjM/dIpyx0+w5yImTnbSY/5rXB6ZL68t4khdONKFbGGEoaKO1qZPunq/j0f0N37szWhS/nvMRDrVp6DAqgMJTbVpem9kAP10qSQpQNnVYWSKRSDafLSDecsMySop02XA5WrAF/o6/vTtMUlEQwsD+E9/m5fbjnNrzC0ZHo9louj7O9XRiiF7njStvMJLMTrhW9N08//TX6O15nu6x79O/5FLQH+dMRyPEP+Vnl37McCrbSegcz/LKuc61Z1W1PT30uE3gf4u/v3KZwJKo0Hg5c+a36HMdoE13i8E0KOkhrn4ylP1ddPFCUxcORrh2/b8zXmlit1p7lqmx/NWyy8pfUXzcu/sG93JhS+e/rire0B/hbHc7usRdfvH2D+lP5Ow3HOULz7zK/u4LdI+U1pfGaWHqvT/n/UBWOGqsT/LqUy/Q0nWe7nuj9Bc8h1DP+Qi3x9LcbtDQiuDy2Po+2CCEBoO9hYOPH8EmFvn49vC6pi+RSCTbjU0Xb4oyzqW3vsOlbACFwnB5FhgczwqHbLQEQ1MDJNpP4bJ6gLFstIZO2rTgn7y63FEDiOQAn0wu0Lu/nT0u6J/L/WD10qhAYvb2snAASPo/4F7gWZob15hZtfZotGiATCJEvhxSMjNc++DPuJYNPTp7lqmx/NWy28pfLa4OWrQQnfhoWbgBiMRNbk6/xP59FeorcIPr/sTy+ZQOfcAt32dp8bpptAJ5Xs36zkeI+tL8ycVq8k49LV/8Dv/zZ1sBECLOwsCH/PL/+ykf3o9XtUUikUh2Opsu3uojTKR4NYXYAjNhH/r8ITudGSMg3Od4/lihO0JjNwImjPklYDBhBOKpwlU/FSVGNL4OHZNae+L9DPufp6XpJb56rpuJwDyByDyL4Wkm56eIZNbYgam1Z5kay18tu6381aLLls9iPFDyUygeAdxl6ysTCxLLEzuKkiYajwN69PoNs3bNhEc/4tcfOAEFnaWZ9p4neeKFeSbG32BMLswrkUh2MdtUvJWiBK/wk0tXijZmPywNx+lrKN1HiPSjXZVBpT2KMs9HV78Pvec56OniUGMfOk1u6C45w90bP+DNSR+iXi/EOpZP2fLfamy18ldLLYfZQQ6p4M2f8g83V8L6E/8L/9tv/wYvnf+Q//qmfGBBIpHsXnaMeCtLbmRp+s53+eGQv0KkNfR2q87JFoVx6rBHJIa49ukQ1wBFMWG1NtLoOMTpvqfpPf4SY7Pf4161xwBXMU+tPVuK7V7+aqllKtkOXpM5EVwkjoKjwYN82lQikexmtsA6bxtIKkocMBvstcVPRIkBBp2pYLMQJsxGbWn8dJIkYDTZ0OatPi+EDqvZBCRI5I/2qbRHaMzYzE4sOk0u3Rih0CSjkxd5Z8wH2nbanLVlrSxqy2ej2W3lr5ZUjDhgMpY+1GAzWoA48bWt1LK1sVgxA7HIOjx6LJFIJNuYnS3eFoaZTIGj/QkOGlayKjTNnH3i9/ndF77GEUOeqyI8w4IAQ1MfnbqV7TrHWXqcZdw84VGmE4D7NKfsurz45znaqEBinIn85brU2mM7z6sXfo/fOXUCc4E4seBx2FhZg6uYCLEUoLViqeZbVWvPRrPbyl8tiyNMp8Hc8hl6DHlz2AxHOdpihdQYE4vreDwVmBu1/OEFA9+9oOPVxo3x1podDvSKQji0SZmUSCSSLcLOHjZN3eb9+2fYe/gwLz37LY7MTRDKmGj0dOI1avCPXmMwzspIWfIG10aeZl/ncV5+rpkx3wwxjZPWhgxzi0lwFyaviEGu9g/SdfQA5578Nh2+cYI4aPXsw66J8ODu24znL4Kq1p7gTfoDj/NY0xf56lO9jAdCZNBjdnbS4TAiwh9xp+zo3ywPZhY41XmQZ87/Nvv90dzoYYapBz/mRkCpz56NZpeVv7Cf5ELnXpZ8ihp79nFaZ9uLPG9fchku0H/7MmNpBZK3+GDgDO2Hevncs9+ib26SMHaaPR249Amm7r7FQIpNGenu26elz6YAWl7al+FH8+sv+m02O0JkiASD6562RCKRbCe0Xq/3j5cCBoOBRGIrvzPQSNu+J9hrWmR48BNmVnnaT1EgsnCTByEtVruXloZ2vFYzmdgY/QM/45f9g9kFVpfjCwJzAyxoG/A4Wmh2uDHh497NnzJqOctBR4LJkQ8ZT6zsE1u8zXBIi9XmpdnVjtdiJB68z42br3NpcqFgMrtqewgxMT1KXOfC7WyjpWEvzQ4XJkJMT73Lm9cvM11mvpWiCALzw4QMTbQ422lpaKXJ2Yzb7iEx+zaDYaUue9SWv1p2W/nT8CQv956g2dVGk7MVj9kIgMHcQpOzNbvNYWBu9NdMpxQURRCev8lIRI/V3pyz30Qq/IA7d1/nzZEZ0vn1ZejiREcHxtAdrk7PFtjoaj5PjzPDw/H3GY2tvR6DAo57FMxpwZWBFJ+E119Bmvc/y+PdLpIT7/PrB+XfQCGRSCS7AeXIkSPLt8g2m41QSM4nKUf3qT/i863+gtczSSojhIWu7uc5YFklYuQu7w70F4nEUmT5S5SWl/mf/sO/okUJ8bD/DlOBcW698XOG1kF8SiQSyXZiZw+briPylTxqMeFtO0Wfo3q5iUCAqwP9rPZOBln+kszUz/ne/xPhmRefoXvfcY5bmpj7558zJNd8k0gkuwwp3iQbgqLM8+Hl7/BhbZE32hzJDkBRBOHhi/zjX17M37pp9kgkEslmsbOfNpVIJBKJRCLZYcg5bxKJRCKRSCTbCOl5k0gkEolEItlGSPEmkUgkEolEso2Q4k0ikUgkEolkGyHFm0QikUgkEsk24pGJN5vN9qgOJZFIJBKJRLJjkZ43iUQikUgkkm2EXKR3FzITy2y2CRKJRCKR7Fq8prX5zqTnTSKRSCQSiWQbIcWbRCKRSCQSyTZCijeJRCKRSCSSbYQUbxKJRCKRSCTbCCneJBKJRCKRSLYR8mlTiWQ3YLTRcNKLiTCL16eJxpXNtkgikUjKI69XqyI9bxLJLkBpduP0WDB6mrB7tZttjkQikVREXq9WZ8d73oQ4xm+8/Aqd9POLn32fexwvCPcrj1bRbzV7EA68L+/FTJC5n40QxlkYzrfH1kTbM14MedtERiCScRLzQQL9s0RC2TXktJ2d7D1S+FYNIRIE3r3HwqK8i1LLWstT+AJEohZMhInMp4F1qANdA82fa8M0P8XYez4yj7rtbhbCgvvFLmws8vBfxolVynfufNFPjzHy68CjtXE72FMF6+k+PC0J/G/fZzG0Ce1KY8DS24KrxYLOqEWjydqQHnvA2KfhtaW9XdvPI2RDrlcqqPt6q6Y/XSM7XrxBmpTIfmbKhne7PYKMyH6KsuEye4SChOZT2YCioLVaMLV4aGqysvj+A/x+gQgGCI4ml/fRNjgxyzek1c2ayzO8wMxbC7nALhFZEkmd6Pe309RpJhMMEp5NL2/PzCer7CVZNzb5elX/9VZ9f1ovu0K8ZTK5z7Lh3W6PIHtgUSFchuACvht5d4JCQb9/H62Hbbh6XYTenyftm8fnW4liPm6X4m0NZGR5SiSPBiEwuMxAlMC1EfxRebOz26j/eltHf1onu0C8pZbFUapsuBAhtDS2Pse5A33ssTkwkCAUfED/0EU+nJorGBoStgt885mncUy9zmsTrTzXe4w2s5FkfI7J8YtcHhwgLIpPfHX2LGHz6viDkxpaEFy+nuC1mfW6oGQQucYlyoZrQBEkh3xEemxYXVaMzBOp1xyhoG9rwtXlxGTXoyFDKhAmPPwQ/2QcUex21ugwdXhw7LFjsOjRiBTpSIzo6CyLo5HSoTydGVtPE/ZmM3qTDoUM6Wic+MQMC4NBUpmi+GrtqSe/rU04O52YnXo0pEmFY0QnZvGPhEkX26Mq7ezwjN1YmEb01l0eDldobethjxDoD+yntddCZmqUyV8H6h9SFRoMe5twdjgw2QxolDSpYITI8AyL49HC8l8eZhplfMKMu8eFyaIlE4sTn5hmfjBMuuR8rJHcELG5IB8NtHypoSBa+bIVaJu9tdmz0e1to+1Rez5q9Fh6WnHtsaLXC9LBMMF7UyTFOnV2atrPilEommw5ZdbrjnqntB819av2fFRzvRJ6nE/34MrMMjtnpbHLBItzzF7zYzi5D5dbR2bBx9zHM8RTeempbZ+qWYf+tEZ2hXhLC4BMzrNVHF5BCAX3/m/wlcOd6BOzTMzcJoyNJncvj50+QOudv+KnQzOlFWw8yQsnmtAtjDAUtNHa1El3z9fx6P6G790ZLYpfuz35HGrT0GFUAIWn2rS8NrN+fjqRAZS8e4WisLrE1mKIgn5/By2HrWgSMWKzAdJoMTTacZ6yYTQ9YGYo74IrdFhPHsDTokNEIkRnImQULfoGK/ZjNkzWYabuhPPi67F9pgO3W0MmECYyn0KgoHXYsBzswGgdZfLjPKGh1h7V+RXoOztoOWJDk0kS9wVJpRR0DVYcffuxuseZvLpAuu4LSorY+CLosyHFasXmNmy4PYq9CU+PBSXmZ/7GWoSbguFABy29FpRknNicn7TQYnTbcZywYjQ+4OFgmfI3NOA5bkJZiBAJ6zA2WbH0dGLQDTOZ3x5U2ZIgNuknO4CmxdhiQ0eC2HSUdF60ZKjMeVmrPRvd3jbaHtXno8DY20lTpwGSMaIzcTIaPfaTe4gH15bFJftrbj/CgPVwE6bcuaKzAhiw9rZjyKvSzPwsCxOJOmzZAe1Hbf2qtV/t9QrA6MTujhFbTGFxe3E/bkFkYsTCVixNXjzdISbuRtdmv9piWs/+tAq7QLzlhiWVVO4kKQ7noevjXE8nhuh13rjyBiPJbHEr+m6ef/pr9PY8T/fY9+kvugnQOC1MvffnvB/IjpFrrE/y6lMv0NJ1nu57o/QX1JoKe/K4PZbmdoOGVgSXx9azGeTcukp6eYy+MFxLEgr6/W4sWsAXJl6vKTobrh4rmugiM1fGiSZzJ5HeivupTmw9XixjI4SXyl9vwqCPER0PMH9jntTSXZzWQuPTXdg7PVjuhwkvFazehtWthcVppt6ZI7V0kmpMOM/sxeawYdIFiKTrtEctWjvOQzY06QgL7wwTCIkVe8514fI24/QsMO+rnkxFlAThuxMsTa/WdnZWvxiuhz2KCedJLwZNktCnk0RSa7gQ6u24DlpQEkHmLo8RjufOR6MDz9N7sRz0YhktU/5OHfEPBlhczHaEitVN81MtGLs8WO6FCddz+qTD+K/nSlJYcL9ow0YE/8dVJpyrtWej29tG26P6fHTi7DBA3M/MpTGiubaiOJtoPrcOcwJUtR8dpnZXkddHj6m9AVPelrSyWJ942wntR239qrVf7fUKwBAjeGmUSNpMw7MHcOijTF56SFLroOnFfVhcZrQikr3hrNd+VaxDf1ojO168Kco4l976DpeyARQKwwU0dNKmBf/k1WXhBiCSA3wyuUDv/nb2uKB/rugggRtc9yeW00uHPuCW77O0eN00WoFQnfbkEfWl+ZOLa2pV5VGizF+8xfzy8YvDZbA34D5mz+2voLFaMDfoUVJRFu8u1u8parBh0kJqcn7lwgOQDBOcSmDbb8bogvBS+adCLHywVLh58dMRYgGB3aJHZ4KVq4EmGytRNL8wE8P/wX38xemotUctdgtGHTA9RzCYWSnvTIzgoA9Du5GMRguPajbkWu0RCsZDe3A6IDU6wcJsumqbXhWXHaMWMpO+5Y4XQMQDhB6msOytUP5+P4GFlWOL0DxBXzNGrwF90fn4SChnz3wzxqYieza6vW20PWrPR5sZgwLCt7gs3ADEoo+w34uxcY35VNN+lAi+X97CByAUbGf7cHsizL85RHCz1xjbKu1Hbf1Ws3+9zsdkinQaIEkqAZBzgqTTpJOATrtiab32q6Ge/rROdrx4U4XOjBEQ7nM8f6zw9kRjNwKmbOdWRCYWLLh7UpQ00Xgc0KPXb6jFm4Jis2PP3RgLIRCJBImHcwTvzRIOreH+Qq9DA4hGN+5jhekoNg2gRVNUnhpnA67eRqxOExodKPlzEoVSeL7EAkT9zRi9rbSesxMNxkmHEyTDMeLz0dL5XHXYowqdFg2QTqRLXPWZhzPMPlxD2o/SHouThuNmUHSY9pggPM/cndDa54/oNWiAZKz0Cb9ULA0Yypd/Ill4bEWQSWQADcpmXPHK2RMvY89Gt7dHYI+q81GXTT+TLLoZUDJkEuvgp6i3/Ww1tlD7UVW/1ezfpPOxLvu3KFK85ZOrOEvDcfoaSn8WIi1XWQDE1OiGrjuka3RhL3PXLUSmsPjNDTSdbcOky5DyBYhEVjoBbaMTs7UoASVJ4NoI9HqwNlqwNTqW128SySihG6P4JhMld0g127NLUcxW7PtWCjsdjpJK8UjOlZ1Y/lutvW3Y+bgFkO1HBduwfgvY7vYXIcVbPrmblek73+WHQ/4KkXbi6b61iN25x/RQpfWUVsrfsM+NSSdIDjxg6l7hRFzr6fIno4iH8X8Szg6RKhq0ViN6pw1Hrxfb8VZis6VzQmq1Z7cifJPZRXo1Zlzn9+P0ttDQFmRuagOG+YuPveFHePRstfa2kefjZiPbT+1sx/rNZ7vbX4x8PVY+qShxwGywb7Ylu5NkigygNdR2T6Ez6YE0sbmiJ6iEBo2hzEVKq0Vr1qPV5i7ZIkM6FCU2McvieBy0FozO+u1RTSqdS1+LUrQ0gqbZi/exfTQ0P8JTdK32iBj+G3MkhRbr4VbM2jV2jcnsE9haU+lYj86UnXuXqWPu+JZlo9ubWjb6fExl09foi9pUpfhqEPsOxgAAIABJREFUke1nXVFdv1uM7W5/MVK85bMwzGQKHO1PcNCwUjRC08zZJ36f333haxwxbM69mrlRyx9eMPDdCzpebdx+DS2dSANadOYq76lbCBFLgW6PB0v+U19aE65zvex9cR8240r5JyMJQIfJa1kRG0Kg8TRhc5apJ5uHlgs97DndgCZfnAgtBrsOyBTOxVdpj2qCEeIpwOPBbs87FTUm7N1uzF4zSrK896qm8nyE9iwhFmfxPYiDyYm7z1ZYzmpZDBJPg6bZjTWv/BWjA1uzDlIR4ov1J18/GTK5ydDa9ewnN7q9bbA9qs/HUJSEAMXtwqJb+V1xurGWi68W2X6yrFP7UV2/W4y12L8h19s1skVu8bYIqdu8f/8Mew8f5qVnv8WRuQlCGRONnk68Rg3+0WsMxtmUkbK+fVr6bAqg5aV9GX40v/VPlnyS035SXU1YjnbR5I2QySyJgwjBT+dJKAqkQizej2A+7KDpmQPEfDFSGQ36RitGk0JqzEckxnL5J0d9RDr3YNnfxZ6GELFIBsVswuRMElsUGNxFRgT8hANunE1ttD3lIBZMI1DQ2K1YnFoILRDKHy1XaY9q0kH890KYj9hoeOoglrkIqZQGXYMVk0VLemYKv698+jWVp8NFY4d1eXfFmn3sXt/Sgtu+1H7ihG/PEksra7JnGUUQvz9JsKUT+942XBODzM/X+bRsMsji/QimXjueZw5g88VIo8XotqHTZ4jdnSHyiObWFRInMpvA0Wmn8ckOLMHM8vBb/MEYQX+dBm10e9tge1Sfj0k//pFmzJ1Omp4zEvXFyWh0mBoh4QfW+rSpbD/r2n5U169a1Fyv6ljuZC3213S9fcRI8ZaHogh8Q3/LD6O5Nyx4+2gTMUKRYW4MvMvV4eHV1+TZIO5NpRnzamlG8M7Uo39R71oRC7PMXFdo6HZiamtEu/SggNAS+3SeBOTe1DDMVMyLa78Dk9eBMZMmHQ4THJjDPxIufGopvojv3QypviYsTisWhyDtD+G/OkVqXw+WEiNi+K8Ok+5pwu6xYNmjRSFDJpYkOjaHv3+eRP4Tp2rtUYuikBweZTruwdnpwtzowEiGVCRC8PYsiyPhisuu1FSeFhv2vc6CJ6oAdG4X9tyFSogwif5ZYum12VNAOsLizQUsjzdiP+YlfHmKeD1vilAEicERpuJNuDqdmLzO7BsfgkECD6ZZnFivNw6otyt+bwyftgVnsxWLXYOiKAiRgWkIVpouW0O6/3977xocx3Xeef/OYDDAAIP7HQQJkARJCOBFpCRSEkVJtK6W5Lci2UkcO7KzdrKVjfdd11ZtkqrdL65s7QdXpSr+4M3W1qbyJq8S61Uc2ZZVtiPZEk1RNiWSkni/gDfcQYK4Y3AbAHPeD3Pr7ukZTA8wwAB4fixi+nSfc/qZM909/3mec8no9ZZpe5zej0oxe7WDe8HQCgveWg8LE5P4z/Yxt3kn3mWwX66fZbx+nH6+TnHyvEpnrrol2J/S83aFUW1tbVEXjs/nw+/PzCRImaxbcMbAzOqsoioIgiAIAlTnL63XmvR5EwRBEARBWEOIeBMEQRAEQVhDiHgTBEEQBEFYQ4h4EwRBEARBWEOIeBMEQRAEQVhDiHgTBEEQBEFYQ4h4EwRBEARBWEPIJL0bkKXOLyMIgiAIwuqxYt/iMkGvIAiCIAjC0hEXjCAIgiAIwhpCxJsgCIIgCMIaQsSbIAiCIAjCGkLEmyAIgiAIwhpCxJsgCIIgCMIaQsSbIAiCIAjCGkLEmyAIgiAIwhpiVSfp1fmtHPnCAQqnxxjuPM+lix1MabWaJgmCIAiCIGQ1q7vCgqeBnQcfp0EptH6JJzt/xuv/+y165kTACYIgCIIg2JFTXV39nUjC4/EQCARW7ORq9iafvvtzPvrkCnO197NjWxtl/g843zW7YjYIgiAIgiCsJVa9z5tSCwSG2zlx6hpBFD5fyWqbJAiCIAiCkLWsuniL4CspIUcpJsYHV9sUQRAEQRCErCVrxFt1ZRVajzN4d2q1TREEQRAEQchaskK8ae2lsrIYGGDk7mpbIwiCIAiCkL1khXiDIgoKAe3HP7HatgiCIAiCIGQvWSLehujsGEGrbew50kxxfg5K69U2ShAEQRAEIetQbW1tUZXk8/nw+/2rYojOqeS+F7/BC4eb8eXE5nkbfP+/87c/71oVmwRBEARBELKN1Z2k14B321GeONRM/mQn7bf78c/MA+DvkjiqIAiCIAhChKwQb1oXse+Zp6n2dPCr7/4PTo7LCguCIAiCIAh2ZEmfNw+5uQqYYHJytW0RBEEQBEHIXrJEvA0zMjIPVFJeudq2CIIgCIIgZC9ZId6U0gwO3AOqKK/JCpMEQRAEQRCykqxRSvcG76FxU15dlVJ+rRUvP+7hH17y8J/qZVoRQRAEQRA2Blkj3ny+QlxK4c5JcQyFS7GpEEBzYySTlgmCIAiCIGQPqzraVOe3cuQLB6kq3sK2nQ3o+T6uXOpPrbBPsTkHmNG0TwEyQFUQBEEQhA3A6k4V4mlg58FHqJ2dYKTjI07+8l852R0EtbgSyy1VVAGBkSC3Mm+pIAiCIAhCVrCq4k2Nv8vf//m7lp2pudAafYocpbgxrAmmWEYQBEEQBGGtkzV93pygtaapRKF1kJtDwdU2RxAEQRAEYcXIihUWnKKU4r2PArwXSq2yNYIgCIIgCCvHmvS8CYIgCIIgbFREvAmCIAiCIKwhRLwJgiAIgiCsIUS8CYIgCIIgrCHW5IAFQRAEIXOUlJSstgkrytjY2GqbIAiOEPEmCIKwwXDn5IQ2wnNkKvMfpqemTHNuWo8bUcs0z2akHq2XZ61qrXXU2liNOnwsltYacnNzQ8d0NIc5n9bx9WhjOlaXIKwEIt4EQRA2GmEhpuJ3mjRaaNuSK4GIix1fmphLt7xV9CmT+IwIq/B7VBHxpVBRuaZARRSZipWLJWOHw/tMaRRWOScImULEmyAIwgbDKttQhj0mb5xh25C2FCWZmEvZpiV63qyiz1yPCtmpjUINlNboSDmtQ/kigi1ULCzQYj48hTktCKuBiDdBEISNilV4qXihZvW+2XnjTFVmoecNHfGghd+TMR0uF5VjSqG0nTfOmMmQFv0mrAIi3gRBEDYsRo9b9E/CsGkiL9tigi4lS5bL86ZDf7T5oCF0Gk6HBVxMtJFApFlCqxa1Jj44YTUQ8SYIgrARUVYZpkwDE+LCpgbhZiq3iGhz6klLOb9F5BlDnUbBFcuqQn3dIumIgFNhQaZDXjZjmDQm2kwWJugnJwgrh4g3QRCEjYay9HszCblFvG+WdFzVyzT6dFGsAyniRpIaPYaxAQqRtI643UzeNYUOCzgweOMMAxbARquJhhNWGBFvgiAIGwwVJ9BiaWXNZdR4mQibqrjhEySadkOZctgfDZlhVlIRD1lMfEUGJhi8aAYhZyqsTAdNhsS8dCLbhJVFxJsgZAHas5Mn9j9Jve7go7Pv0BFYIe+FIJhdbNHtuBCqIW8mw6aR8yxWTFkEk1nsqZibDIPICu9TsShpSJdBVKBFtZplX8QrZ9wfdz7RcMIKIctjCUIW4Kk9xL7KOqqqHmFfbd5qmyNsEFT8pCGWEagGYWcNo0b+W4srZfqfOZTpf7w5huNRj6IyH7f24zOP3ojUnOT8dn5IQcg8q+5503oPX3jxZZpo592fvc419prS7SvVf2IdofVWnn7mVe7jM37yy5/SI224oqTT/oHhq3TNbKKObm4OzSJfCdlFQdPX+WZbk2mf1mOcO/k3nBhZvs9qdZ+HyixHTC/m/nHxJcOerCVct0tfYcFoqWW0KQavmiGEqg2ltMHrpnRsn6G4sWdc6CzR/RI+FVaWVRdvsMC8Dr0GbdOCsP5R/tO89d7pSGpVbRHimZto53LXcDRdUL6HxsJMnGnlnocmHajMV12cA8u0aX99OhVuibxyySbbNTrGEmo8y+ACMHdlM3ZtU9oq0Oz6u5m34ySaaDZhFcgK8RYMhl9t04IgCKvL3NBJ3huKpZv2tGRMvK3E8zCZzIobsLBIwUX7pmVo0t64Pm+Wo8n7vFlEm6ECFenbpmN6ToVFnXUga7Qe8+kEIeNkgXibjz6c5m3TMbQu4sHH/jOPlHTw62PHyW95ht2VVRS65hgfvcYnl/+NyxNzljI5lNc9ycPbW9nkK8ZDAP/EbdpvHeNU/yBB6688Vxk7djzPwYZGSnM10/7bXLz6c0Y3f5vn6kY588H3+cgfdsyXPcu/e+Rhcrtf5/9cuG6qp2nPn/PS5rm4sIpje9x17N55lL01dZTkF+JmlqnpIfp7P+S3N68wFgzb4n6ILz77eTaZyh/g5ZcOmOrrvfTX/KhjMi170ml/p2yk9o+EV1vzVMI8ce2jc6nafJRDjS3U+4rxMIvf382t28c42XuHeePn5TvKq48fobj/TV7rrePJlj3Ue/OYmx2kr+cYJ27eYFIv7Ys11fbUWlG+7ev8/n1bWLj3Fv986ixT0WOFtDz4H3imJpc7V/+ON28ORJcs0q5itjQeZn9DM1XeIjx6msnpu3R2HuPjrj5monWUc+jx/8jB4AneudfIY1trCY6e5J0zl6m6//d5pMLLzOgZfvnp+/TPq7j2+YfuSp5sOUCDrwDX3DA9vcf5oP0S48GVaZ8YqT8Pjfiq3fzF/S5q0Zw4G+C1gcUUVYJkkmJWz5yNP2xlibZdbBBCLGXNa3fA+i5CCkybPG3G5bJUgpNY1J8grABZId4WNEAw/MvSmrbDzdbdX6LS00fvwAh5RY1sqdjP5w668P/6J3QtxL4wKrZ9lS/d10Ru4B69A5eZxEdVRQsPHthO3ZW/561bA4YvGBf1LV/l+aZydOAu3XcHmMkpo+3+lxn0L/2dOrenhD0PvMqTFR5m/B3c6h1jgVx8pc1s3/G71BS8yRtnLzGtFOghunsvEjKzkNq6rRQzTE9/H1MGG0b8c2nb47T9nbfPxmp/GKen5zPIDaVcRc20lBUnbZ/q5lf54q4G3HPD9AxeYjJYRE3lDvbd30St9//hzRt34j+vvPt5el8V7pFObk34qKtqonnnV6h0/wM/uNJl8/kuf3sqpRm+9RYna/49R6qe5Yn6G/yiPyRQvbXPc6SmgPmRX/FLo3DTheza98c8W1fI3FQ3PXe7mFUFlFU0sWfPN2gofI3Xr3Sa7c9rY2/lXXpH/WyveJzPHWokuNBH92QT2yqP8Ezzdf7fqz2W9tnLM/dX4xnt5PZkAVUVTTRt+yLlapJ/utyxIu0TI53nIeyqd9GYF+pe/1h9Dq8NLK+fzq4FFmuV0ACAlRB2hjipqYua8dzGNUljy2FFvGraEio1azQVt6WIeeKi0k16OwgrSBaIt3BYQM2zYJu2oxbf+D/zT1c7mFMKrT1s2/ctXmzYy/5N79LVNR3K5m7l4Z1NeKbP8vaHb9M5F74Bc5t56sgf0LLzKZq7X6c98pM2dy8PNZbD7Hl+dvzHdIR/obuLn+Dlh5ts7HCIY3t2srMiH8be518+PMF41BtRzUMP/R6tpdupd1/i5gKohVucPncrdFxv5emqrRTTyZmzSTrMO7UnSort75QN1v5KDXHt6ttcC6cLmr6eVLyR28ah5gbcgau8+8EPaQ+E7ffs5vOPv8K25qM0d8Z/Xq6SAvpP/k8+Gg8JR1fho7zy2NPUbj1M87Uu2tN1GDhsT6VGOHvuPZqOvMD2ts+z/d4PucEujuxuI3+hiw/OnWTM2Fa5DdTkDtLdfZxjF88wriPtv4WjT/wRu5sepbm9k3ajTnHf4bOTP+RmsIbDT/4pB3J7+cFvfsVQTisvPP27bC/bTIHujnr9AFzFBfR/9LecCrePzm3h80/8Hs1Nj7HzegdXk7m8lrF9QqTzPITL3QtcLnNRh+ZE9/J4gBIFKxfPtPg0HxljkfBldHCCZVoPy3L00ZyWUQ1hT5xBtiV19wlC5lh18aZUD8ff/yuOhxIozGl7RrjZExIOoWwBbvXfINCwn9LCSqA7lK2sifocGOs7HX1wAui5G5zrG6FlWwObSqF9MHygsJpyBYF7l6PCAWBu7GOujT9BTfkS36xTe1w5uIBgwI9RDqngAGc+/j5nQqmVsydKiu3vlI3W/k4pbaQ2B6Z7P4kKNwAduMjFO8+xbUuCz2v8AmfHAtH7acH/MZeGPkdtdQXlhUC6Xs00rh81fYb3ruzkK3taOXLffWj9HLvyZum+9Bbnpyy9luavceJURNoaemIFu+gdXWB3XRmlXsAYYV6YZCoIMMHkLMBkyPO54GdqAXB74h96lvZRc1dpvzdL86ZKKguBsRVsn7SehzA9tMB3jyWTd8tMsvDqqnmg4mOjsYCmwm4eNlOJuDCp0TsXqcdcMFo+2i9OEFaGVRdv6THJ1Kxl18wIA5ND5BpDdm4veYCueJin9ph/PruK8oB88owt4MknD5idnzHlVWqG6dlleDA6tWe2nY6xp6iteo4vP9xM7/gw41PDjE7eoW+4n6kl9sdxbE+UFNvfKRut/Z3iDrXP6Ox43CH/7BRQYft5BWcmon3DAJRaYHp2FsglN3cp9qR3/Ux0vcWJmv/AU5te5jmVS2Do57zfMWz7rZ9b/ACPtRxkW2kFXrfL1HldaxeuZfgIgrOTBCznnp6bBfLJ9yyh4rTvrywlw5d7JDhrneTDaS2hF23ywCXu8hYTdabgqEGtmcKtxu5tNmJPEFaKtfToSIqa+JCfHP/QsjP0UlC2l9ay+DJaL6xsX1uH9ig1zCenX4eWw+yo3Mqu8lbc4W8rPTfA1Qtv8F7fULSPUKbtSVqVXftnG9nW/k5J5TRZfD1Hi6lJrnff4HD1XvKZ5XbnOSZs2lB7H+Slh19gk3uWsaErdE4Fol+Svop9bC5YvreSEbLt+ROHdQjCIllMuxIZvoQ3tBL9/q0eM+t+BVonMsW82H3seDiUKsNNhRVk3Yg3W8L30p0r3+OHtxLFPpbwsFm0T7A250nDHh24xZnztzgDKJVPYWE55cW7ONB6hJa9z9F97wdcS7dPTqbbJ9Os9fZ3SirfDSv5/ZHm9aNzmjhy3x7yA0OMUkHzfc+z+d5P6bZ4bau3HGKTWzN04x9541q/qWP/jv17s1+8reX7Ky2z0p2i13kpW09aqtVZPGZxwxHiYqmEFrInfr/VQycIK8X6Xh5rfppZwOspSi1/YJoZwOPON+3WOh9vXk58/oU55oC8fB85hhkjtXZT6M0HAgSM0T6H9miXF5+3hAK3K1zvDH5/H119x/hN9xDkNFBfktpbs8Vp+2Sajdb+TpmfYRbIz4sf1ODLKwBmmV3aTC0O7XF+/WjtofG+/4u2gjn6brzOT290MO+9n8+17iTXMutqUX4RMEX/YL9lypp88j3L9+hy5RXisZzbm5sHzDATWELF2XZ/JUIlTGAWZInliUp61K68MvyzO5IayvLqGGV6MWxHRJs1T3iHtZxakhWC4Jj1Ld5GOuibh+KGR9hheNhrVw2HHvkv/MnTf0Cbx/DQnhxgRIOnqpUmd2y/u/gQO0ts3DyTXdwJABUH2F/kNuQ/zO5yBYEeeo2dqZ3a4zvMK0e/zdf278NrEicFVBb7iM0BZWWKmXkgp5CCZL5Vp/Zkmo3W/k4Z7eTOAnhrH2Cnx/CV6tnN7tpCmO+md3QZz7cYaVw/eTWf53NbSpkf+YD3bg8xdvtnnB6Zo2jzSzxZa3aljU6NAAVsqt4cFedaK7yVR9hdunxvQxfv5v7iWOc/ndvCzqo80IMM2k+3x+TcNJCPLy9Jp7gVvL+85Tn85VEP3zvq5pVyZ/F1+9zxIi7xsVTOpaJ/nYizxWpd1vxxb9EmQGzQbiqcJ/p+RLsJK8j6DpvOX+aj6w+x+b77eO6JP6NtsBd/MJ/yyiaq81yMdZ3hpnEZybkLnOk8wpamvbz4ZA3dQwPMuEqoKwsyODoHFebqlb7J6fabbN29nYcf/RaNQz1MUExd5RaKXFPcvvoBPcYRSE7tmbhI+/hBHqx6gS8/1kLPuJ8guXhLmmgszkNPfsIV22jMPW4PjLC/aQePH/5Dto1Nh6OHQfpv/5gL4yo9ezLNBmt/XXQ/R5s2E/EpuopCw2lL6p/hqaKIy3CE9ssnQiHFuUt8fOMhGna18OwTf0brYB+TFFFT2UhpboD+q+9zY56V+7wctqfObeFze/fhW+jlN+dD04Iohvj0/Am2P/YUu/a8yK3hH3JzLlRgqPMkHY2/Q9O2r/Fq+S16JwN4vHVsKpmgd2SOisrleRtzo1M0HPoWW0a6GQuG5nkr92jGb39I+xy27Tl09yrjWx9l++5v8mJ1DzPR6+wOF86fYkCpFb2/Wrfk0OpTQA7PbQnyo+HURKEyqY7lEVVx53CS2YGWNc7gkdqB+HBrKG38G9tPuP+bYU+0z1v8AIb4/nCCkElyqqurvxNJeDweAoGlxAkyTR71Wx5hc/4oHTfPMbDIaD+lYGrkIrf9ORQWVVNb1kB1oZfgTDftN37Gr9pvhiZYjebXjA/eYCSnjMriWmqKK8hniGsX36Kr4BA7igP0dZ6iJxArMzN6mQ5/DoW+ampKG6guyGN24joXLr7J8b4RU2d2x/bgp/dOF7PuUipK6qkt20xNcSn5+LnT/1veO3uCOzb9rZTSjA934PdUUVvSQG1ZHVUlNVQUVRK49wE3J1Va9jhtf6dstPan7FFebNlHTWk9VSV1VHrzAPB4a6kqqQvtK/Yw2PUpd+ZDE91ODl+kcyqXwqKasP35zE/e5srVN3mvc4AF4+fl2cq+xkby/Fc4feeeycbSmsPsLAlyt+cjumbS7KnkoD21LmTX/q/wUImLgeuv8/4df0Q5oAM93GEHbTXb2Owb5lrfXeaUQi3c5fbdITyFlZQW1VFbXII70MVn59+mt9B6PXhpaDzIppw+Lt+6jp9cajcfppGbfNrTwzwlNG3bT81CJ+c6O5hVKtY+I+/xoxtTNNTtorGsivzgMF2dv+Cd9uvMJFABwelOuv25lJbWU1/RSF3kMywO0nv9IkNKpXF/pc+Ehr2VCu+C5sMb85ybTF6vOycn/BlaApYR1RKJDCrDYvUK0zbmksZE4mMpsLSxm4ZZetMg3tbYs9K6FmzMmxj7s2DviheEZUe1tbVF7xSfz4ffvwxT2a9Dmvf/V56vGzMtzyQkRusCtjY/xfbFOpVPXeW3N9oX/RKT9s8sy/15rQViy2P9K3/72eXVNmdFyfOEwr0JxZvhmHlfbJvo5mJroFqP2rnGdLSW9MRbKpPl6thfw+iDmHfNmNamYtomrzlbKB0IrGSnU2Ejs77DpstIZgIK65l8quv301qcvN30+Dinb7Sz2JoM0v6ZZnk/r7XFBr62koQYl1TeZrEC84EUBFqyLAqjkkqJVHNHpgsxnyt2DGLTiUSj5RI2FVYYEW9CRlBqmFMn/opTqWXOtDnCIsjnJSQm9nnrJf2Mil/hwHQ04VJTNoVS0knJMi1Wgbl3XEyamXrFxfaalJwgZB4Rb4IgCBsSS8g0lRL2Ec/46kzHU/RIJRFt1kPJbA2ZaBN8deAYU2ExFq1FGZ19yjDvW7QXoEzSK6wo0udNEARhg5HnCQ2OiYogZZzuwtLnzTRAwW7R+eWeKsPs47IVXRHHmApnMM+2Gz+sNME5IL7PmymXpf9b9DTa3saZWeu6gYKQGcTzJgiCsAFRhr9RtHFUaQJsvG9GjbPUqHpiR52O39T2h1MVbosRGaAREWvGsejhI6EaJWIqrDAi3gRBEASsYdT4fSmSKMap7bItJqSWYdqQqBE2njVTKom7TimDQrUPmy7NVkFwhog3QRCEDUZKkszoYbN62xKOJk1Qj2kzFZGjk45vUFGdFVufNGKH1gatFTVRx72FxKbEi7hI/VpHOr+F10Y1tYm434SVQ8SbIAjChiSR2Eiwf7FpQZQ5mbiS5OXRdjO9mfdYQ6txU7PZevmMU3vEzhfUOhz+tHERJmsibR7koRV4vd4EBSzWaKIK1OGMJ7FakhaMF7+m/KY2ttoQb5P1XMnPLawEIt4EQRA2GDMB6VgfocDrJX7iYduEfWQ5mowfOGEvcRYbAJKaOFKWgto6OZ0CZRhYoYxiUSlUVMCFwsAxsafiRusmiHwLq4iIN0EQBEEwRUtth3OYiBcyBlGmTC/xJaOeN3uhZhVmtrVYypnKRERbdMSwjk1zEhFmFgGHMrjqLElRb9mHiDdBEARBiGIjnGzCrcqSNjreIocS1m909NkItSV73iKizehdIyboVCIPXLRXYki9KYM3LrxX9FuWIOJNEARBECB+mhRl3NDx86BYwqhJoqoGVsbzFvWuRfq/RUZ5xHngQl42CPcJtEZfLQJOyA5EvAmCIAgCEN/3LV6O2egbh5JmZTxvxlBpTIHFizZtOW7atr4z0W9Zg4g3QRAEYWNjFWpJHGxR7RXtH2ZYlN4witQ42tNO8yjHnjdt92IoE8sWPxDBGDY1i7Z4AWe019r5TfRbtiDiTRAEQRCwajhl3AyhDQm7+KqxQIphVGVQXckdbsryYpz6I9IjLXLqmGiLCrSoqLT2ZzOfQZv+Gvebt4TVxbXaBgiCIAjCaqMSpVLryLYsFihl/U/0v13+6P/w2rTKeEzZb5vH0cZEpumISScuPvJWWHlEvAmCIAiCBasXzixxzPlM+s466AF74RMRaItbET6vRdQlyqqMQk3FpJfRzsh7i6smJVfhIiYLK4KETQUhC9CenTyx/0nqdQcfnX2HjoA8IQVhdVhcwZgjphF5ZJwkLTUBFyqeatjUXJtS5szasDyXacqPyN9IxNMS+VQodFwM1RIolWhp1iGeN0HIAjy1h9hXWUdV1SPsq81bbXMEYUOT1OmkLP9NR5fyo8vgWbPUmFhCJsgR52YzbkfEpV2nPHvhSeyQkCXkVFdXfyeS8Hg8BAKBFTVA6z184cU/5dkddYxhIxMRAAAgAElEQVS2X2CQvab0UArz3QhmtN7K08/8J17cVkzfzWuMSxsuiZVoz4WFPOpqt1Aw38G5658xMLd851iN62HH/v/GVw7sxdV/ih7xIm4onFxv2fD8z83NjYkZiPYfi2yDRR7FKbgMEAmpGv4nkWomG237qSmbfQnqSL4jhCxtuvpkQdh0gXkdeg3apgVh/aP8p3nrvdOR1KraIggrRxY//xPehstzfyabKiRBAUMiwVDR8CFDsJTIzG7GfcYiocGnof3GqKpESrObLAibLhAMAsHYzWtOC4IgCOuTjfH8j0YwI440m2NOa4z3xEVGLBjqNbvebCKpjvxwKZQRVoos8LzNh25WFpi3TcfQuogHH/vPPFLSwa+PHSe/5Rl2V1ZR6JpjfPQan1z+Ny5PzFnK5FBe9yQPb29lk68YDwH8E7dpv3WMU/2DBK2zVLvK2LHjeQ42NFKaq5n23+bi1Z8zuvnbPFc3ypkPvs9H/vAvprJn+XePPExu9+v8nwvXTfU07flzXto8x7mTf8OJEZW+Pe46du88yt6aOkryC3Ezy9T0EP29H/Lbm1cYC4ZtcT/EF5/9PJtM5Q/w8ksHTPX1XvprftQxmZY96bS/E1bk881gezq1PxReepXWPJWwzvg2yqG09nEe2d7GpqIS8pjBP32Pnu4TfNx5i8kVvB4AtKucHTuf49CmRkrcmqnJW1y6+gtG9PJ89WpXMVsaD7O/oZkqbxEePc3k9F06O4/xcVcfM8br03eUVx8/QnH/m7zWW8eTLXuo9+YxNztIX88xTty8waRO73pQNa/wpw80c+3Ud3l/UKHVbl56/hW2co133vn/uB5U6KKn+PqRh+g/811+OaAdt2em7y8n7zdmU2r2p3u9OXn+G/FVu/mL+13UojlxNsBrA1kuKJRllKqyO+ZkwIKljgSDDZLusZvoTVgzZIV4W9AAwfAvLWvaDjdbd3+JSk8fvQMj5BU1sqViP5876ML/65/QtRBxRysqtn2VL93XRG7gHr0Dl5nER1VFCw8e2E7dlb/nrVsDsQeQdlHf8lWebypHB+7SfXeAmZwy2u5/mUH/0t+pc3tK2PPAqzxZ4WHG38Gt3jEWyMVX2sz2Hb9LTcGbvHH2EtNKgR6iu/ciITMLqa3bSjHD9PT3MWWwYcQ/l7Y9Tts/fTL1+Wa2PZ23zzg9PZ9BbijlKmqmpaw4YatorShv+ipfamsib2Gcu8NXGZ3LpbRiK22tX2NrxVv8y+nPmFih60FrF5tavhK+XwboHrgbvl9eYWBi6eJN60J27ftjnq0rZG6qm567XcyqAsoqmtiz5xs0FL7G61c646/PvPt5el8V7pFObk34qKtqonnnV6h0/wM/uNKV1vUQnBhkjN2UFBbC4BT4aqjQswSoorIQrk9ATmE5RQxzeSIIqKy7vxxd/zi8HtK+X9J5/sOueheNeSFP02P1Obw2kAE/nXGVeQcYopeOS8ZWREj1THFLItinjfssx2zDo+GdEkLNXrJAvIXd5GqeBdu0HbX4xv+Zf7rawZxSaO1h275v8WLDXvZvepeurulQNncrD+9swjN9lrc/fJvOufDQ59xmnjryB7TsfIrm7tdpj/zEy93LQ43lMHuenx3/MR3zodvQXfwELz/ctPS36tieneysyIex9/mXD09EO/5qVzUPPfR7tJZup959iZsLoBZucfrcrdBxvZWnq7ZSTCdnzv6UnkSdfp3aEyXF9k+bTH2+GW5Ph/YrNcS1q29zLVyqoOnrScUbrp0c3NVE3kIXv/nNa3zmD90hWlVz8NFvcqj6KR6oPMevh/TKXA+5e3iwsRxmL/Lz429yO3q/HOXlh7cs0kYpkNtATe4g3d3HOXbxDOM68nlt4egTf8Tupkdpbu+k3fK97SopoP/k/+Sj8ZBQcBU+yiuPPU3t1sM0X+uiPfIt5OB6YHKA4QWoLawCOsktqaZotoduvZWKklyYmKe0qBy1MMDQFKFvu2y7v5y8X5zZn/79ks7zHy53L3C5zEUdmhPdyy8r0tRty0A47JmyC24xWeXQw5ZM9BmSwuqz6uJNqR6Ov/9XHA8lUJjT9oxwsyf0YAtlC3Cr/waBhv2UFlYC3aFsZU3U58BY3+nogwdAz93gXN8ILdsa2FQK7YPhA4XVlCsI3LscFW4Ac2Mfc238CWrKl/hmndrjysEFBAN+jI9rFRzgzMff50wotXL2REmx/dMmQ59vptvTqf1OKdpMjRuC/Wc4NzEfGwmnB7hw/WMqN1cy48oDZtKrP437pUzB3OClqHADmBs7ybXxI0u+X9T8NU6cikhbQy+dYBe9owvsriuj1AtYI8zjFzg7Foi2z4L/Yy4NfY7a6grKC4GIF93R9XCP0WloLijDpTuo8FWiJs/QxTb2+mqBHsoKymDyEtHbJdvuL6fXf9r2p056z3+YHlrgu8eSyTuHRFaNiiSW8BxYLQ9VZr1jhgXthaxg1cVbekwyNWvZNTPCwOQQucaQgttLHqArHuapPeaft66iPCCfPGMLePLJA2bnzV9+Ss0wPbsMDwqn9sy20zH2FLVVz/Hlh5vpHR9mfGqY0ck79A33MxVcotBwak+UFNs/bTL0+Wa6PZ3a75RcDx5gOjAZF2qbGXifXwykXzWQxv3iJR+YnTN7gpbtfgFyix/gsZaDbCutwOt2mWak19qFy6Y5gzMTpr5wSi0wPTsL5JKba8jo6HoYZmhiDoorKMVDVUkp42PdDLgmKC6uxa3HKfN5CIwPhMLWkH33l9PrP2371xYxqWYWbaFU7G8EtYp+ucVwIuCciT2RbdnGOrj1QqiJD/nJ8Q8tO0MvBWV7aS2LL6P1wsregw7tUWqYT06/Di2H2VG5lV3lrbjD31Z6boCrF97gvb6h8ILDmbcnaVV27b+MLMfnm/H2dGp/tpFl94v2PshLD7/AJvcsY0NX6JwKRL9CfBX72FywtPqdXA9KaYb8I1BTThl1VPhguPcuwznDUFdJJSOUFsBI/13DCUIv2XJ/Ob7+s+x6yBwW+RanzZZDrKVah1ORpG22llJfCOnjlv2sG/FmS/jqu3Ple/zw1liCTEu4KRftI6vNedKwRwduceb8Lc4ASuVTWFhOefEuDrQeoWXvc3Tf+wHXkg3LWsQ8p/ZkFdnWnmudLLseqrccYpNbM3TjH3njWr/J27hj/94lizdwdj2MTgwRdJVSVlJDed4IA+MBpt33mM6rptI3SknuLCMTo0TbKMvaExxe/1lof0bQoJUOT75hmenMTnPp6J8QKfzY05Ey1lGnloqdTX6bYuYE2UScrW2yYJ63DDI/zSzg9RSllj8wzQzgceebdmudjzcvJz7/whxzQF6+jxzDXae1m0JvPhAgYIweObRHu7z4vCUUuF3hemfw+/vo6jvGb7qHIKeB+pLU3potTtsn28i29sw0cwECgNdTiMvylM+vfpovPPQVDtfk25dNBcf3ywyzQF6u17Q74f3ikKL8ImCK/sF+y5Qa+eR7lv7ocno9LEwMMkY5JbVVVASHGJwAxgcZoZrKujJKGQzti5Bl95fj6z/L7M84mthIz/Af43ZE7mjLf2fn0Ojw/9iuyL70bY4ZYnwTNnnjEslOKvIum1nf4m2kg755KG54hB2Gh7121XDokf/Cnzz9B7R5DBfo5AAjGjxVrTS5Y/vdxYfYWWLjZpvs4k4AqDjA/iK3If9hdpcrCPTQa+xM7dQe32FeOfptvrZ/H17TzV5AZbGP2JxIVqaYmQdyCilI5lt1ak+2kW3tmWkmurk7D66qB9lnuN60qmHvjodorKold87aWQoydj1M3mVYQ25VG9ss90tLydKvm9GpEaCATdWboz+OtFZ4K4+wu3TJ1Tu/HqYGGNF5lFfVkz9zj6EgMDfASKCAiqoavIF7DBm7/2Xb/eX0/aZtf+bvF295Dn951MP3jrp5pXz5vX9G55rZ0Rb/fkNCzLmUS/+TTyTQUhFii4w8XVT0LXYeYaVY32HT+ct8dP0hNt93H8898We0DfbiD+ZTXtlEdZ6Lsa4z3Jwl5hafu8CZziNsadrLi0/W0D00wIyrhLqyIIOjc1Bhrl7pm5xuv8nW3dt5+NFv0TjUwwTF1FVuocg1xe2rH9BjnBTUqT0TF2kfP8iDVS/w5cda6Bn3EyQXb0kTjcV56MlPuGIbzbjH7YER9jft4PHDf8i2selw9DZI/+0fc2FcpWdPtpFt7ekQXXQ/R5s2E/FRuYpCwzNL6p/hqaKIy3aE9ssn6F5QEGzn1LUOtrQ1cfjw/03zcBejAQ+lFVup9XqYGvgFnwwFbcI4GboeovfLbj7/ZDXdQ3fD94tmdDwINv2knDDUeZKOxt+hadvXeLX8Fr2TATzeOjaVTNA7MkdF5dLqd3w9BAcYmYKmomr0vVMMA3CXYT+0lNTBeDtDxvqz7f5y+n7Ttj8z94uR1i05tPoUkMNzW4L8aHhpUkiFQ6eRUZXY/I1OqWZjvjaIO5Vqn1ntcPSm1qbOaLZlrd41owdxsbyWUwnZzaovTO+MPOq3PMLm/FE6bp5jYJHRgUrB1MhFbvtzKCyqprasgepCL8GZbtpv/Ixftd+MTkgZyq8ZH7zBSE4ZlcW11BRXkM8Q1y6+RVfBIXYUB+jrNC+0PTN6mQ5/DoW+ampKG6guyGN24joXLr7J8b4RU+d3x/bgp/dOF7PuUipK6qkt20xNcSn5+LnT/1veO3uCOzb9s5TSjA934PdUUVvSQG1ZHVUlNVQUVRK49wE3J1Va9jhtf+dk+PPNcHs6bp+yR3mxZR81pfVUldRR6c0DwOOtpaqkLrSv2MNg16fcmVcoBdOjF7k5oSgsqKS6pIEaXyHBwB1u3Xibf7t6Bb+NEsjU9aCUZnzoOiOuciqKQveLl2GuXgrdL81FM3H3ixPUwl1u3x3CU1hJaVEdtcUluANdfHb+bXoLbe5Hz1b2NTaS57/C6Tv3THWV1hxmZ0mQuz0f0TUTfr+Or4cZCisPs6M4l5H+45wfnkSpeTwlD9BaXsDMwEk+vjdiaJ/sur+cvl/n9kfKpXq/pM+Ehr2VCu+C5sMb85xbQp1ud06ov1t0nEZkWxmWmDI+R+L3LUbKgi6Cjq0zGt2VOHNcBnu5Zh8qTZZKYp6wyqi2trbox+Dz+fD7l2EpgXVI8/7/yvN1Y6blsYTEaF3A1uan2L5Yp/Kpq/z2Rrvtl4CwfpDrYXmR9lw+8vPyCOm1iHqLF23m5jO3pWNhZimX8sL0cZjUWvy4U5t+e6GX2GvsJbJtfjUeN9azEBT1ttqs77DpMpJsjJBgRz7V9ftpLU7ebnp8nNM32lnqmgxCtiPXw/Ii7bmsaEyT9OrwSNOILjPqK6tWs4qvVMWcc9FmHy+1F22hDbvBF3H9+ZLGYYVsRTxvKbJj/3+LW5heEARBWNvk5eWZPG1xXjdIOh1IOp43uzrT88DpBJtJvG82njbTto6VN3ndDHWI5231Ec+bIAiCsHHROuR106HRAFqFvW5h11skxBiVWouIrlTEnDFs6dBY281QMv6YrYgzCTPit83+OKvR4qDLEsTzJgiCIGxY8jye0IYy9m+z9nWzGZhhzpAyycTdkrxvdmLOGELV1v12fd6SbUdLExTP26ojnjdhTVCQV2gzGsxmZFgE0yhTK8puJ3G/auPyhMfpp/jcSvgbddHdxvCFOR17sdtnuwOA6cDU4gYLwgYkcquoqFAJTxeiQtvGY8ZwaiLv2WKet/QHKBitJe4ej/OXWb1vkZ0JBJqplrj9QrYh4k1Yeyz2Yzft44ZJlJLlUYkfoPYn0sl3K2OWVB6YdnkW68wsCIIt0fnTor8Io/pGhed+s/b5gsQiLVVxtvTRpiajbOOc5sEJ2pTf5FmzLY8hX3x9wuoi4k1YG8SvFh3eb3qJT9vkTbTb/pkU78HT9ofjS0YfmqFf8nH1K/O2snXqWX1qOsFRayl5wgpCKgTm5igpyeZ18ZafsbFEa9UKawURb8IaJCTklHVfonBFkt06LptKLHuSq7yE+aNj1hb7hW1nkKlIEo9bNGWTR3ScICRFxIyw1hDxJqxdVIJtu3SyYirxcdvyKeiwpCfOgJhKFHqRviuCIAjrDxFvwsZjydP0KZRKITCZqKtbMhG3qPctUjT5wIml96MRBEEQshXXahsgCKkTPyoKSN3rppIcS4MlV6ewrySaTvB+41TbYmlBEARhPSGeN2FtEaeWjAMZdGxdQvu5Ppbn3Ak8anGWWQ84ddXZ7k80giw+Zb9HEARBWOuIeBPWGE5EWWTaj0XyZ7AvWsokCI9GWNy0JDJO9JsgCMK6QsSbsEbIgCfNSqrVpyv2nJQzDIqIm4DXppLYVEzxE72J900QBGF9IeJNWGfo8LxqYRZbScE202JC0WYiX9sJd52QWr+1yFxvJkFnnUTTlFMQBEFYb4h4E9YmKizTVEQtWZa8MmkvGzG2qKhLNBQ0sT1x28uinBaZpDfRygw6vqQgCIKwPhDxtkbQnp08sf9J6nUHH519h45AhkOIWUZskRqDWEujBrArusLiJoG401GvXXIvnN3cbVYRZxRuMmuIIAjC+kKmClkjeGoPsa+yjqqqR9hXm7fa5qwikY5g5g5hcYsvJymrDTmc6RpjSfsj2jZXonJ2uXXcX+uxxDZZ6xHhJgiCsB5Zdc+b1nv4wosv00Q77/7sda6x15RutxkpqPVWnn7mVe7jM37yy5/Ss9howgyh3Q/xxWc/T/3wu/zdyZPMJLGjoOnrfLOtyVxej3Hu5N9wYmRx+wPDV+ma2UQd3dwcmmU5O+87ac90Pq9lspLIezb73Qz7tY4t9mwQMsraOU2r2OLTS7RoqTnM2ePz24tM2wBq3D7p9SYIgrA+WXXxBgvM69Br0Da9PpibaOdy13A0XVC+h8bC1Msr/2neeu90JLW8xjli9T4vTWx9enMA1TLXm0WZaWVtMW05nlp7Ju7KlppAMuXSdtLLsK1jss10TJuHLCQqZ1yBQeSbIAjC+iIrxFswGH61Ta8P5oZO8t5QLN20p8WReMseVvPziowkTdz3zb43XETqWBezN5ZKhuPZdpOg44onCpRq8x+zFy6uj5ttpeJ9EwRBWIdkgXibj375z9umQ0RClJtMXpIDvPzSAVNtvZf+mh91TMbKuYrZ0niY/Q3NVHmL8OhpJqfv0tl5jI+7+uJCndpdx+6dR9lbU0dJfiFuZpmaHqK/90N+e/MKY8HFvTRaK8q3/xG/37KZQP+/8oNPLyUNqSauJxTObM0zl7W+x3TsT7c9U/28rPiq3fzF/S5q0Zw4G+C1AYftEVVl8cItofctWTWOTw56yR7PxN42+3zasitBTz1rNutB0W6CIAjriqwQbwsaIBj23FjTYfQQ3b0X8QNQSG3dVooZpqe/jylDthH/XKyILmTXvj/m2bpC5qa66bnbxawqoKyiiT17vkFD4Wu8fqWTYKSflC5hzwOv8mSFhxl/B7d6x1ggF19pM9t3/C41BW/yxtlLTC8ixHKKHuPZHZtxz17gnQvpCbcQ4/T0fAa5oZSrqJmWsuKEuR3Zn0Z7hkjx87Kwq95FY15oIc/H6nN4bcCpny6Rl80i2rQKh0kNIi8aN42omJUNOyfXTqkMSkhSMk7PJRvwIAiCIKwHskC8hcNuap4F23QItXCL0+duAWGPVNVWiunkzNkkHexzG6jJHaS7+zjHLp5hPLzYpHZt4egTf8Tupkdpbu+kPaIjcneysyIfxt7nXz48wXhE1Lmqeeih36O1dDv17kvcXLA/HYBWtRza/zhVOeNc+fQX3J5PXygoNcS1q29zLZwuaPp6UvHmxP602hNI9fOycrl7gctlLurQnOh2LiqSesyM+swi5uIcdsRLmtQ/IWd2a5utZPXFDzZInFhcosXiprLCgiAIwvpi1cWbUj0cf/+vOB5KoDCnl1T3/DVOnIpIn1hdKthF7+gCu+vKKPUCkaigKwcXEAz4mTbWExzgzMff54ylHita51C362UOFLkY73ybDwaml/weHLFE+1Mh3c9remiB7x5LJu9SJ37cqX3g1K6E3dH4FeTDOFxCNdUDtnu19Yh1YIK2REDtBi6kO5RCEARBWEusunjLNLnFD/BYy0G2lVbgdbuiU0kAaO3CZfyCnm2nY+wpaque48sPN9M7Psz41DCjk3foG+5nKlF/t8L7eGxvFZoyGhqqYOo0v7x6g7mVnsIkXfvXCEbRplEok8dtsXJp9INbLMpq09cs9dWxkuSyhEK1RaglUX82x0W+CYIgrDfWtXjT3gd56eEX2OSeZWzoCp1TgehXma9iH5sLzPmVGuaT069Dy2F2VG5lV3kr7rC603MDXL3wBu/1DcVNLaHyt3Dfli3R9OxkH6PzrPiMHunav2bQGq1UeLoQO29aWKJpbe8FTKLSkkocHR6lanHr2ZVaVColyGAUZtqq3hLlTVB/cpEnCIIgrHXWtXir3nKITW7N0I1/5I1r/dGBCQA79u+NE28AOnCLM+dvcQZQKp/CwnLKi3dxoPUILXufo/veD7hmGVaph97h706eZNpVwyOH/4QHq57h8bp23rkzHX+CDJOO/WuLeNEW8cLFCzpzqUjcUTkWr5G+c/ETADuqJcFyB9rkNFu8p1zSc0hfN0EQhHXPul4eqyi/CJiif9As3LTOJ98T/9a1y4vPW0KB2xXON4Pf30dX3zF+0z0EOQ3UlyQ+n9IDnDr/EcPBAna0Pc9W98p+eS7V/uwmwfQYNr38Q93HdFgVLd9nEK1y2erTYUFnU2nCMQ4GcZfEGJNwEw0nCIKwrlij4m2KmXkgp5CCJL7D0akRoIBN1ZvJicw8rxXeyiPsLrUp4DvMK0e/zdf278Nr+pIsoLLYR2xOs8QsjP2a9zuGIG8PT7Q0k5vgC3ZybhrIx5fnSV6hE9K2P7X2XAre8hz+8qiH7x1180p5ujOtgb0mSeyvsmv+qGhyrMSci8HQaXRSoWW0K3Ymbd5nXZEhRRFnrEsQBEFYH6zRsOk9bg+MsL9pB48f/kO2jU2H5xgL0n/7x1wYD4mDoc6TdDT+Dk3bvsar5bfonQzg8daxqWSC3pE5Kiot1U5cpH38IA9WvcCXH2uhZ9xPkFy8JU00FuehJz/hylhyy5RaoL/9bS7Wfp3dW17k0b7/xfFh61xpMHT3KuNbH2X77m/yYnUPM9ERj3e4cP4UA0qhi+7naNNmcsJHXEXlAJTUP8NTRZGRmyO0Xz5B94Jagv2ptedSaN2SQ6tPATk8tyXIj4aXQ1CYw6TGyKm5z77G3Gktlh/DeqjLTfIwqUMRmMoRWYVeEARhQ5BTXV39nUjC4/EQCARW056UUEozPtyB31NFbUkDtWV1VJXUUFFUSeDeB9ycDH0Zq4W73L47hKewktKiOmqLS3AHuvjs/Nv0Fh5iR3GAvs5T9ATC+fHTe6eLWXcpFSX11JZtpqa4lHz83On/Le+dPcEdY38x1yZat++gaPomn/b0MB8WAUqP0esvomXTNhrKPXR33sBvEQ7B6U66/bmUltZTX9FIXWk9VSV1VBYH6b1+kSGloOxRXmzZR03kmDcPAI+3lqqSunB+D4Ndn3JnXjm332F7LoUJDXsrFd4FzYc35jnnsE53Tk54ahKiQkxFXg37Qu8nth1BxQ6kiEo5eypeNSd1WOszet+sZzL3lxMEQRA2AqqtrS36zPf5fPj9/tW0RxBsyfN4LKItLNtsBJxVzFlJ19MWKZeuWLMrZ1xA3ponugi95RU0MT1nPWZfz3IITEEQBCE7WKNhU2FDEomLRlbKUJYBpuHj0TngwqrIKtasQiZVMedUAC3aFy2J4EpezpEZgiAIwjpDxJuwJghLsriZQiKzu0UWjVcGARfNo3XSsOmioikSrrValKaIsuvzlkjIxdsmyk0QBGGjI+JNWBuEHW6hFQzCs66FJ+MNvURmclPhudyMIkfFpg8hjbCpTV+ztN6CVaAZbLLNY9fXLUGINdVzCoIgCGsfEW/CGsJmQl6DgIOIaFMmTaQwjza1EzTLPeI06RxsCUab2oo742sK04OIWBMEQVj/iHgT1g6WuUAis6sYl8MKzQqiTSFSbf5jK9RWQvQkF3SJR5gmyytiTRAEYeMh4k1YExj7vFlFm45sQzRtFD3LNWDBsc0OByzE7TOES1MSadY8IuwEQRDWJSLehLVBnGgjHEKNbYfy6bh53hYTayvlvUrL82Y9lmK4VDxygiAI6xcRb8LawSTaiI0q1eZ+bdY+ZamKNaVUTBw59MYZi6U+5UcK/d4SiDgRZ4IgCBsXEW/CmmBu3mZpCEEQBEHYgKzRhekFQRAEQRA2JiLeBEEQBEEQ1hAi3gRBEARBENYQIt4EQRAEQRDWECLeBEEQBEEQ1hAi3gRBEARBENYQIt4EQRAEQRDWEEnnedP5rRz5wgEKp8cY7jzPpYsdTOnMLCUkCIIgCIIgLE7ySXo9Dew8+DgNSqH1SzzZ+TNe/99v0TMnAk4QBEEQBGE1yKmurv5OJOHxeAgEAtGDavYmn777cz765ApztfezY1sbZf4PON81uyrGCoIgCIIgbHQW7fOm1AKB4XZOnLpGEIXPV7ISdgmCIAiCIAg2pDxgwVdSQo5STIwPZtIeQRAEQRAEIQkpi7fqyiq0Hmfw7lQm7REEQRAEQRCSkJJ409pLZWUxMMDI3QxbJAiCIAiCICQkRc9bEQWFgPbjn8ioPYIgCIIgCEISUhRvQ3R2jKDVNvYcaaY4PweldWYtEwRBEARBEOJQbW1tURXm8/nw+/22GXVOJfe9+A1eONyMLyc2z9vg+/+dv/15V+YtFQRBEARBEBaZpNeAd9tRnjjUTP5kJ+23+/HPzAPg75I4qiAIgiAIwkqRknjTuoh9zzxNtaeDX333f3ByXFZYEARBEARBWA1S7PPmITdXARNMTmbUHkEQBEEQBCEJKYq3YUZG5u1EAzkAAAC9SURBVIFKyiszao8gCIIgCIKQhJTEm1KawYF7QBXlNSnP6ysIgiAIgiAsMykrsXuD99C4Ka+uyqQ9giAIgiAIQhJSX9vUV4hLKdw5KQ9QFQRBEARBEJaZpEpM57dy5AsHqSrewradDej5Pq5c6l8p2wRBEARBEAQLyd1ongZ2HnyE2tkJRjo+4uQv/5WT3UFQMlWIIAiCIAjCapDyCguCIAiCIAjC6iNDRwVBEARBENYQIt4EQRAEQRDWEP8/9/dagPavVb0AAAAASUVORK5CYII=;imageBorder=#C2CAFF;strokeWidth=5;fontSize=15;fontStyle=0;fontFamily=Comic Sans MS;" vertex="1" parent="1">
          <mxGeometry x="-150" y="670" width="401.75" height="345" as="geometry" />
        </mxCell>
        <mxCell id="R0ztrQL8_Un1_5b5-fqd-7" value="AgentT.execute()" style="shape=process;whiteSpace=wrap;html=1;backgroundOutline=1;fontSize=15;fontStyle=0;fontFamily=Comic Sans MS;" vertex="1" parent="1">
          <mxGeometry x="-54.120000000000005" y="450" width="210" height="60" as="geometry" />
        </mxCell>
        <mxCell id="R0ztrQL8_Un1_5b5-fqd-14" value="Parse task" style="text;html=1;align=center;verticalAlign=middle;resizable=0;points=[];autosize=1;strokeColor=none;fillColor=none;strokeWidth=2;fontSize=15;fontStyle=0;fontFamily=Comic Sans MS;" vertex="1" parent="1">
          <mxGeometry x="50" y="530" width="100" height="30" as="geometry" />
        </mxCell>
        <mxCell id="R0ztrQL8_Un1_5b5-fqd-17" value="Get task" style="text;html=1;align=center;verticalAlign=middle;resizable=0;points=[];autosize=1;strokeColor=none;fillColor=none;fontSize=15;fontStyle=0;fontFamily=Comic Sans MS;" vertex="1" parent="1">
          <mxGeometry x="60" y="630" width="80" height="30" as="geometry" />
        </mxCell>
        <mxCell id="R0ztrQL8_Un1_5b5-fqd-19" style="edgeStyle=orthogonalEdgeStyle;rounded=1;orthogonalLoop=1;jettySize=auto;html=1;strokeWidth=2;strokeColor=#82b366;fillColor=#d5e8d4;shape=link;" edge="1" parent="1" source="R0ztrQL8_Un1_5b5-fqd-18" target="R0ztrQL8_Un1_5b5-fqd-2">
          <mxGeometry relative="1" as="geometry" />
        </mxCell>
        <mxCell id="R0ztrQL8_Un1_5b5-fqd-18" value="AgentT.__init__()" style="shape=process;whiteSpace=wrap;html=1;backgroundOutline=1;fontSize=15;fontStyle=0;fontFamily=Comic Sans MS;" vertex="1" parent="1">
          <mxGeometry x="-383.5" y="450" width="210" height="60" as="geometry" />
        </mxCell>
      </root>
    </mxGraphModel>
  </diagram>
</mxfile>
